G75*
%MOIN*%
%OFA0B0*%
%FSLAX25Y25*%
%IPPOS*%
%LPD*%
%AMOC8*
5,1,8,0,0,1.08239X$1,22.5*
%
%ADD10C,0.00400*%
%ADD11C,0.00600*%
%ADD12C,0.00200*%
%ADD13C,0.00500*%
%ADD14C,0.01000*%
%ADD15R,0.08268X0.01181*%
D10*
X0113927Y0084302D02*
X0116996Y0084302D01*
X0114694Y0086604D01*
X0114694Y0082000D01*
X0118531Y0082767D02*
X0119298Y0082000D01*
X0120833Y0082000D01*
X0121600Y0082767D01*
X0121600Y0085837D01*
X0120833Y0086604D01*
X0119298Y0086604D01*
X0118531Y0085837D01*
X0147000Y0050465D02*
X0147000Y0047396D01*
X0150069Y0050465D01*
X0150837Y0050465D01*
X0151604Y0049698D01*
X0151604Y0048163D01*
X0150837Y0047396D01*
X0150837Y0045861D02*
X0151604Y0045094D01*
X0151604Y0043559D01*
X0150837Y0042792D01*
X0147767Y0042792D01*
X0147000Y0043559D01*
X0147000Y0045094D01*
X0147767Y0045861D01*
X0162767Y0062000D02*
X0162000Y0062767D01*
X0162000Y0064302D01*
X0162767Y0065069D01*
X0162000Y0066604D02*
X0162000Y0069673D01*
X0162000Y0068139D02*
X0166604Y0068139D01*
X0165069Y0066604D01*
X0165837Y0065069D02*
X0166604Y0064302D01*
X0166604Y0062767D01*
X0165837Y0062000D01*
X0162767Y0062000D01*
X0120833Y0142000D02*
X0119298Y0142000D01*
X0118531Y0142767D01*
X0116996Y0142000D02*
X0113927Y0142000D01*
X0115461Y0142000D02*
X0115461Y0146604D01*
X0116996Y0145069D01*
X0118531Y0145837D02*
X0119298Y0146604D01*
X0120833Y0146604D01*
X0121600Y0145837D01*
X0121600Y0142767D01*
X0120833Y0142000D01*
X0112392Y0142767D02*
X0109323Y0145837D01*
X0109323Y0142767D01*
X0110090Y0142000D01*
X0111625Y0142000D01*
X0112392Y0142767D01*
X0112392Y0145837D01*
X0111625Y0146604D01*
X0110090Y0146604D01*
X0109323Y0145837D01*
D11*
X0149300Y0145600D02*
X0149300Y0149800D01*
X0149300Y0153800D01*
X0149300Y0158000D01*
X0149302Y0158076D01*
X0149308Y0158152D01*
X0149317Y0158227D01*
X0149331Y0158302D01*
X0149348Y0158376D01*
X0149369Y0158449D01*
X0149393Y0158521D01*
X0149422Y0158592D01*
X0149453Y0158661D01*
X0149488Y0158728D01*
X0149527Y0158793D01*
X0149569Y0158857D01*
X0149614Y0158918D01*
X0149662Y0158977D01*
X0149713Y0159033D01*
X0149767Y0159087D01*
X0149823Y0159138D01*
X0149882Y0159186D01*
X0149943Y0159231D01*
X0150007Y0159273D01*
X0150072Y0159312D01*
X0150139Y0159347D01*
X0150208Y0159378D01*
X0150279Y0159407D01*
X0150351Y0159431D01*
X0150424Y0159452D01*
X0150498Y0159469D01*
X0150573Y0159483D01*
X0150648Y0159492D01*
X0150724Y0159498D01*
X0150800Y0159500D01*
X0149300Y0153800D02*
X0149388Y0153798D01*
X0149477Y0153792D01*
X0149565Y0153782D01*
X0149652Y0153769D01*
X0149739Y0153751D01*
X0149825Y0153730D01*
X0149910Y0153705D01*
X0149993Y0153676D01*
X0150076Y0153643D01*
X0150156Y0153607D01*
X0150235Y0153568D01*
X0150313Y0153525D01*
X0150388Y0153478D01*
X0150461Y0153428D01*
X0150532Y0153375D01*
X0150601Y0153319D01*
X0150667Y0153260D01*
X0150730Y0153198D01*
X0150790Y0153134D01*
X0150848Y0153067D01*
X0150902Y0152997D01*
X0150954Y0152925D01*
X0151002Y0152851D01*
X0151047Y0152774D01*
X0151088Y0152696D01*
X0151126Y0152616D01*
X0151160Y0152535D01*
X0151191Y0152452D01*
X0151218Y0152367D01*
X0151241Y0152282D01*
X0151260Y0152196D01*
X0151276Y0152108D01*
X0151288Y0152021D01*
X0151296Y0151933D01*
X0151300Y0151844D01*
X0151300Y0151756D01*
X0151296Y0151667D01*
X0151288Y0151579D01*
X0151276Y0151492D01*
X0151260Y0151404D01*
X0151241Y0151318D01*
X0151218Y0151233D01*
X0151191Y0151148D01*
X0151160Y0151065D01*
X0151126Y0150984D01*
X0151088Y0150904D01*
X0151047Y0150826D01*
X0151002Y0150749D01*
X0150954Y0150675D01*
X0150902Y0150603D01*
X0150848Y0150533D01*
X0150790Y0150466D01*
X0150730Y0150402D01*
X0150667Y0150340D01*
X0150601Y0150281D01*
X0150532Y0150225D01*
X0150461Y0150172D01*
X0150388Y0150122D01*
X0150313Y0150075D01*
X0150235Y0150032D01*
X0150156Y0149993D01*
X0150076Y0149957D01*
X0149993Y0149924D01*
X0149910Y0149895D01*
X0149825Y0149870D01*
X0149739Y0149849D01*
X0149652Y0149831D01*
X0149565Y0149818D01*
X0149477Y0149808D01*
X0149388Y0149802D01*
X0149300Y0149800D01*
X0149300Y0145600D02*
X0149302Y0145524D01*
X0149308Y0145448D01*
X0149317Y0145373D01*
X0149331Y0145298D01*
X0149348Y0145224D01*
X0149369Y0145151D01*
X0149393Y0145079D01*
X0149422Y0145008D01*
X0149453Y0144939D01*
X0149488Y0144872D01*
X0149527Y0144807D01*
X0149569Y0144743D01*
X0149614Y0144682D01*
X0149662Y0144623D01*
X0149713Y0144567D01*
X0149767Y0144513D01*
X0149823Y0144462D01*
X0149882Y0144414D01*
X0149943Y0144369D01*
X0150007Y0144327D01*
X0150072Y0144288D01*
X0150139Y0144253D01*
X0150208Y0144222D01*
X0150279Y0144193D01*
X0150351Y0144169D01*
X0150424Y0144148D01*
X0150498Y0144131D01*
X0150573Y0144117D01*
X0150648Y0144108D01*
X0150724Y0144102D01*
X0150800Y0144100D01*
X0182800Y0144100D02*
X0182876Y0144102D01*
X0182952Y0144108D01*
X0183027Y0144117D01*
X0183102Y0144131D01*
X0183176Y0144148D01*
X0183249Y0144169D01*
X0183321Y0144193D01*
X0183392Y0144222D01*
X0183461Y0144253D01*
X0183528Y0144288D01*
X0183593Y0144327D01*
X0183657Y0144369D01*
X0183718Y0144414D01*
X0183777Y0144462D01*
X0183833Y0144513D01*
X0183887Y0144567D01*
X0183938Y0144623D01*
X0183986Y0144682D01*
X0184031Y0144743D01*
X0184073Y0144807D01*
X0184112Y0144872D01*
X0184147Y0144939D01*
X0184178Y0145008D01*
X0184207Y0145079D01*
X0184231Y0145151D01*
X0184252Y0145224D01*
X0184269Y0145298D01*
X0184283Y0145373D01*
X0184292Y0145448D01*
X0184298Y0145524D01*
X0184300Y0145600D01*
X0184300Y0158000D01*
X0184298Y0158076D01*
X0184292Y0158152D01*
X0184283Y0158227D01*
X0184269Y0158302D01*
X0184252Y0158376D01*
X0184231Y0158449D01*
X0184207Y0158521D01*
X0184178Y0158592D01*
X0184147Y0158661D01*
X0184112Y0158728D01*
X0184073Y0158793D01*
X0184031Y0158857D01*
X0183986Y0158918D01*
X0183938Y0158977D01*
X0183887Y0159033D01*
X0183833Y0159087D01*
X0183777Y0159138D01*
X0183718Y0159186D01*
X0183657Y0159231D01*
X0183593Y0159273D01*
X0183528Y0159312D01*
X0183461Y0159347D01*
X0183392Y0159378D01*
X0183321Y0159407D01*
X0183249Y0159431D01*
X0183176Y0159452D01*
X0183102Y0159469D01*
X0183027Y0159483D01*
X0182952Y0159492D01*
X0182876Y0159498D01*
X0182800Y0159500D01*
X0176091Y0193965D02*
X0176091Y0209635D01*
X0197509Y0209635D02*
X0197509Y0193965D01*
D12*
X0184300Y0158100D02*
X0149300Y0158100D01*
D13*
X0147554Y0157198D02*
X0145302Y0154946D01*
X0145302Y0157949D01*
X0143050Y0157198D02*
X0147554Y0157198D01*
X0146803Y0153345D02*
X0147554Y0152594D01*
X0147554Y0151093D01*
X0146803Y0150342D01*
X0143801Y0150342D01*
X0143050Y0151093D01*
X0143050Y0152594D01*
X0143801Y0153345D01*
X0143050Y0148774D02*
X0143050Y0147273D01*
X0143050Y0148023D02*
X0147554Y0148023D01*
X0147554Y0147273D02*
X0147554Y0148774D01*
X0189806Y0194176D02*
X0194310Y0194176D01*
X0194310Y0197179D01*
X0192808Y0198780D02*
X0194310Y0200281D01*
X0189806Y0200281D01*
X0189806Y0198780D02*
X0189806Y0201782D01*
X0192058Y0195677D02*
X0192058Y0194176D01*
X0156491Y0213236D02*
X0156491Y0215488D01*
X0155740Y0216238D01*
X0152738Y0216238D01*
X0151987Y0215488D01*
X0151987Y0213236D01*
X0156491Y0213236D01*
X0156491Y0217840D02*
X0154239Y0217840D01*
X0154990Y0219341D01*
X0154990Y0220092D01*
X0154239Y0220842D01*
X0152738Y0220842D01*
X0151987Y0220092D01*
X0151987Y0218590D01*
X0152738Y0217840D01*
X0156491Y0217840D02*
X0156491Y0220842D01*
D14*
X0161800Y0214950D02*
X0164556Y0210816D01*
X0158847Y0210816D01*
X0161800Y0214950D01*
D15*
X0161800Y0215146D03*
M02*
