G75*
%MOIN*%
%OFA0B0*%
%FSLAX25Y25*%
%IPPOS*%
%LPD*%
%AMOC8*
5,1,8,0,0,1.08239X$1,22.5*
%
%ADD10C,0.00000*%
D10*
X0021800Y0016800D02*
X0021800Y0236761D01*
X0235501Y0236761D01*
X0235501Y0016800D01*
X0021800Y0016800D01*
X0025501Y0026800D02*
X0025503Y0026958D01*
X0025509Y0027116D01*
X0025519Y0027274D01*
X0025533Y0027432D01*
X0025551Y0027589D01*
X0025572Y0027746D01*
X0025598Y0027902D01*
X0025628Y0028058D01*
X0025661Y0028213D01*
X0025699Y0028366D01*
X0025740Y0028519D01*
X0025785Y0028671D01*
X0025834Y0028822D01*
X0025887Y0028971D01*
X0025943Y0029119D01*
X0026003Y0029265D01*
X0026067Y0029410D01*
X0026135Y0029553D01*
X0026206Y0029695D01*
X0026280Y0029835D01*
X0026358Y0029972D01*
X0026440Y0030108D01*
X0026524Y0030242D01*
X0026613Y0030373D01*
X0026704Y0030502D01*
X0026799Y0030629D01*
X0026896Y0030754D01*
X0026997Y0030876D01*
X0027101Y0030995D01*
X0027208Y0031112D01*
X0027318Y0031226D01*
X0027431Y0031337D01*
X0027546Y0031446D01*
X0027664Y0031551D01*
X0027785Y0031653D01*
X0027908Y0031753D01*
X0028034Y0031849D01*
X0028162Y0031942D01*
X0028292Y0032032D01*
X0028425Y0032118D01*
X0028560Y0032202D01*
X0028696Y0032281D01*
X0028835Y0032358D01*
X0028976Y0032430D01*
X0029118Y0032500D01*
X0029262Y0032565D01*
X0029408Y0032627D01*
X0029555Y0032685D01*
X0029704Y0032740D01*
X0029854Y0032791D01*
X0030005Y0032838D01*
X0030157Y0032881D01*
X0030310Y0032920D01*
X0030465Y0032956D01*
X0030620Y0032987D01*
X0030776Y0033015D01*
X0030932Y0033039D01*
X0031089Y0033059D01*
X0031247Y0033075D01*
X0031404Y0033087D01*
X0031563Y0033095D01*
X0031721Y0033099D01*
X0031879Y0033099D01*
X0032037Y0033095D01*
X0032196Y0033087D01*
X0032353Y0033075D01*
X0032511Y0033059D01*
X0032668Y0033039D01*
X0032824Y0033015D01*
X0032980Y0032987D01*
X0033135Y0032956D01*
X0033290Y0032920D01*
X0033443Y0032881D01*
X0033595Y0032838D01*
X0033746Y0032791D01*
X0033896Y0032740D01*
X0034045Y0032685D01*
X0034192Y0032627D01*
X0034338Y0032565D01*
X0034482Y0032500D01*
X0034624Y0032430D01*
X0034765Y0032358D01*
X0034904Y0032281D01*
X0035040Y0032202D01*
X0035175Y0032118D01*
X0035308Y0032032D01*
X0035438Y0031942D01*
X0035566Y0031849D01*
X0035692Y0031753D01*
X0035815Y0031653D01*
X0035936Y0031551D01*
X0036054Y0031446D01*
X0036169Y0031337D01*
X0036282Y0031226D01*
X0036392Y0031112D01*
X0036499Y0030995D01*
X0036603Y0030876D01*
X0036704Y0030754D01*
X0036801Y0030629D01*
X0036896Y0030502D01*
X0036987Y0030373D01*
X0037076Y0030242D01*
X0037160Y0030108D01*
X0037242Y0029972D01*
X0037320Y0029835D01*
X0037394Y0029695D01*
X0037465Y0029553D01*
X0037533Y0029410D01*
X0037597Y0029265D01*
X0037657Y0029119D01*
X0037713Y0028971D01*
X0037766Y0028822D01*
X0037815Y0028671D01*
X0037860Y0028519D01*
X0037901Y0028366D01*
X0037939Y0028213D01*
X0037972Y0028058D01*
X0038002Y0027902D01*
X0038028Y0027746D01*
X0038049Y0027589D01*
X0038067Y0027432D01*
X0038081Y0027274D01*
X0038091Y0027116D01*
X0038097Y0026958D01*
X0038099Y0026800D01*
X0038097Y0026642D01*
X0038091Y0026484D01*
X0038081Y0026326D01*
X0038067Y0026168D01*
X0038049Y0026011D01*
X0038028Y0025854D01*
X0038002Y0025698D01*
X0037972Y0025542D01*
X0037939Y0025387D01*
X0037901Y0025234D01*
X0037860Y0025081D01*
X0037815Y0024929D01*
X0037766Y0024778D01*
X0037713Y0024629D01*
X0037657Y0024481D01*
X0037597Y0024335D01*
X0037533Y0024190D01*
X0037465Y0024047D01*
X0037394Y0023905D01*
X0037320Y0023765D01*
X0037242Y0023628D01*
X0037160Y0023492D01*
X0037076Y0023358D01*
X0036987Y0023227D01*
X0036896Y0023098D01*
X0036801Y0022971D01*
X0036704Y0022846D01*
X0036603Y0022724D01*
X0036499Y0022605D01*
X0036392Y0022488D01*
X0036282Y0022374D01*
X0036169Y0022263D01*
X0036054Y0022154D01*
X0035936Y0022049D01*
X0035815Y0021947D01*
X0035692Y0021847D01*
X0035566Y0021751D01*
X0035438Y0021658D01*
X0035308Y0021568D01*
X0035175Y0021482D01*
X0035040Y0021398D01*
X0034904Y0021319D01*
X0034765Y0021242D01*
X0034624Y0021170D01*
X0034482Y0021100D01*
X0034338Y0021035D01*
X0034192Y0020973D01*
X0034045Y0020915D01*
X0033896Y0020860D01*
X0033746Y0020809D01*
X0033595Y0020762D01*
X0033443Y0020719D01*
X0033290Y0020680D01*
X0033135Y0020644D01*
X0032980Y0020613D01*
X0032824Y0020585D01*
X0032668Y0020561D01*
X0032511Y0020541D01*
X0032353Y0020525D01*
X0032196Y0020513D01*
X0032037Y0020505D01*
X0031879Y0020501D01*
X0031721Y0020501D01*
X0031563Y0020505D01*
X0031404Y0020513D01*
X0031247Y0020525D01*
X0031089Y0020541D01*
X0030932Y0020561D01*
X0030776Y0020585D01*
X0030620Y0020613D01*
X0030465Y0020644D01*
X0030310Y0020680D01*
X0030157Y0020719D01*
X0030005Y0020762D01*
X0029854Y0020809D01*
X0029704Y0020860D01*
X0029555Y0020915D01*
X0029408Y0020973D01*
X0029262Y0021035D01*
X0029118Y0021100D01*
X0028976Y0021170D01*
X0028835Y0021242D01*
X0028696Y0021319D01*
X0028560Y0021398D01*
X0028425Y0021482D01*
X0028292Y0021568D01*
X0028162Y0021658D01*
X0028034Y0021751D01*
X0027908Y0021847D01*
X0027785Y0021947D01*
X0027664Y0022049D01*
X0027546Y0022154D01*
X0027431Y0022263D01*
X0027318Y0022374D01*
X0027208Y0022488D01*
X0027101Y0022605D01*
X0026997Y0022724D01*
X0026896Y0022846D01*
X0026799Y0022971D01*
X0026704Y0023098D01*
X0026613Y0023227D01*
X0026524Y0023358D01*
X0026440Y0023492D01*
X0026358Y0023628D01*
X0026280Y0023765D01*
X0026206Y0023905D01*
X0026135Y0024047D01*
X0026067Y0024190D01*
X0026003Y0024335D01*
X0025943Y0024481D01*
X0025887Y0024629D01*
X0025834Y0024778D01*
X0025785Y0024929D01*
X0025740Y0025081D01*
X0025699Y0025234D01*
X0025661Y0025387D01*
X0025628Y0025542D01*
X0025598Y0025698D01*
X0025572Y0025854D01*
X0025551Y0026011D01*
X0025533Y0026168D01*
X0025519Y0026326D01*
X0025509Y0026484D01*
X0025503Y0026642D01*
X0025501Y0026800D01*
X0210501Y0026800D02*
X0210503Y0026958D01*
X0210509Y0027116D01*
X0210519Y0027274D01*
X0210533Y0027432D01*
X0210551Y0027589D01*
X0210572Y0027746D01*
X0210598Y0027902D01*
X0210628Y0028058D01*
X0210661Y0028213D01*
X0210699Y0028366D01*
X0210740Y0028519D01*
X0210785Y0028671D01*
X0210834Y0028822D01*
X0210887Y0028971D01*
X0210943Y0029119D01*
X0211003Y0029265D01*
X0211067Y0029410D01*
X0211135Y0029553D01*
X0211206Y0029695D01*
X0211280Y0029835D01*
X0211358Y0029972D01*
X0211440Y0030108D01*
X0211524Y0030242D01*
X0211613Y0030373D01*
X0211704Y0030502D01*
X0211799Y0030629D01*
X0211896Y0030754D01*
X0211997Y0030876D01*
X0212101Y0030995D01*
X0212208Y0031112D01*
X0212318Y0031226D01*
X0212431Y0031337D01*
X0212546Y0031446D01*
X0212664Y0031551D01*
X0212785Y0031653D01*
X0212908Y0031753D01*
X0213034Y0031849D01*
X0213162Y0031942D01*
X0213292Y0032032D01*
X0213425Y0032118D01*
X0213560Y0032202D01*
X0213696Y0032281D01*
X0213835Y0032358D01*
X0213976Y0032430D01*
X0214118Y0032500D01*
X0214262Y0032565D01*
X0214408Y0032627D01*
X0214555Y0032685D01*
X0214704Y0032740D01*
X0214854Y0032791D01*
X0215005Y0032838D01*
X0215157Y0032881D01*
X0215310Y0032920D01*
X0215465Y0032956D01*
X0215620Y0032987D01*
X0215776Y0033015D01*
X0215932Y0033039D01*
X0216089Y0033059D01*
X0216247Y0033075D01*
X0216404Y0033087D01*
X0216563Y0033095D01*
X0216721Y0033099D01*
X0216879Y0033099D01*
X0217037Y0033095D01*
X0217196Y0033087D01*
X0217353Y0033075D01*
X0217511Y0033059D01*
X0217668Y0033039D01*
X0217824Y0033015D01*
X0217980Y0032987D01*
X0218135Y0032956D01*
X0218290Y0032920D01*
X0218443Y0032881D01*
X0218595Y0032838D01*
X0218746Y0032791D01*
X0218896Y0032740D01*
X0219045Y0032685D01*
X0219192Y0032627D01*
X0219338Y0032565D01*
X0219482Y0032500D01*
X0219624Y0032430D01*
X0219765Y0032358D01*
X0219904Y0032281D01*
X0220040Y0032202D01*
X0220175Y0032118D01*
X0220308Y0032032D01*
X0220438Y0031942D01*
X0220566Y0031849D01*
X0220692Y0031753D01*
X0220815Y0031653D01*
X0220936Y0031551D01*
X0221054Y0031446D01*
X0221169Y0031337D01*
X0221282Y0031226D01*
X0221392Y0031112D01*
X0221499Y0030995D01*
X0221603Y0030876D01*
X0221704Y0030754D01*
X0221801Y0030629D01*
X0221896Y0030502D01*
X0221987Y0030373D01*
X0222076Y0030242D01*
X0222160Y0030108D01*
X0222242Y0029972D01*
X0222320Y0029835D01*
X0222394Y0029695D01*
X0222465Y0029553D01*
X0222533Y0029410D01*
X0222597Y0029265D01*
X0222657Y0029119D01*
X0222713Y0028971D01*
X0222766Y0028822D01*
X0222815Y0028671D01*
X0222860Y0028519D01*
X0222901Y0028366D01*
X0222939Y0028213D01*
X0222972Y0028058D01*
X0223002Y0027902D01*
X0223028Y0027746D01*
X0223049Y0027589D01*
X0223067Y0027432D01*
X0223081Y0027274D01*
X0223091Y0027116D01*
X0223097Y0026958D01*
X0223099Y0026800D01*
X0223097Y0026642D01*
X0223091Y0026484D01*
X0223081Y0026326D01*
X0223067Y0026168D01*
X0223049Y0026011D01*
X0223028Y0025854D01*
X0223002Y0025698D01*
X0222972Y0025542D01*
X0222939Y0025387D01*
X0222901Y0025234D01*
X0222860Y0025081D01*
X0222815Y0024929D01*
X0222766Y0024778D01*
X0222713Y0024629D01*
X0222657Y0024481D01*
X0222597Y0024335D01*
X0222533Y0024190D01*
X0222465Y0024047D01*
X0222394Y0023905D01*
X0222320Y0023765D01*
X0222242Y0023628D01*
X0222160Y0023492D01*
X0222076Y0023358D01*
X0221987Y0023227D01*
X0221896Y0023098D01*
X0221801Y0022971D01*
X0221704Y0022846D01*
X0221603Y0022724D01*
X0221499Y0022605D01*
X0221392Y0022488D01*
X0221282Y0022374D01*
X0221169Y0022263D01*
X0221054Y0022154D01*
X0220936Y0022049D01*
X0220815Y0021947D01*
X0220692Y0021847D01*
X0220566Y0021751D01*
X0220438Y0021658D01*
X0220308Y0021568D01*
X0220175Y0021482D01*
X0220040Y0021398D01*
X0219904Y0021319D01*
X0219765Y0021242D01*
X0219624Y0021170D01*
X0219482Y0021100D01*
X0219338Y0021035D01*
X0219192Y0020973D01*
X0219045Y0020915D01*
X0218896Y0020860D01*
X0218746Y0020809D01*
X0218595Y0020762D01*
X0218443Y0020719D01*
X0218290Y0020680D01*
X0218135Y0020644D01*
X0217980Y0020613D01*
X0217824Y0020585D01*
X0217668Y0020561D01*
X0217511Y0020541D01*
X0217353Y0020525D01*
X0217196Y0020513D01*
X0217037Y0020505D01*
X0216879Y0020501D01*
X0216721Y0020501D01*
X0216563Y0020505D01*
X0216404Y0020513D01*
X0216247Y0020525D01*
X0216089Y0020541D01*
X0215932Y0020561D01*
X0215776Y0020585D01*
X0215620Y0020613D01*
X0215465Y0020644D01*
X0215310Y0020680D01*
X0215157Y0020719D01*
X0215005Y0020762D01*
X0214854Y0020809D01*
X0214704Y0020860D01*
X0214555Y0020915D01*
X0214408Y0020973D01*
X0214262Y0021035D01*
X0214118Y0021100D01*
X0213976Y0021170D01*
X0213835Y0021242D01*
X0213696Y0021319D01*
X0213560Y0021398D01*
X0213425Y0021482D01*
X0213292Y0021568D01*
X0213162Y0021658D01*
X0213034Y0021751D01*
X0212908Y0021847D01*
X0212785Y0021947D01*
X0212664Y0022049D01*
X0212546Y0022154D01*
X0212431Y0022263D01*
X0212318Y0022374D01*
X0212208Y0022488D01*
X0212101Y0022605D01*
X0211997Y0022724D01*
X0211896Y0022846D01*
X0211799Y0022971D01*
X0211704Y0023098D01*
X0211613Y0023227D01*
X0211524Y0023358D01*
X0211440Y0023492D01*
X0211358Y0023628D01*
X0211280Y0023765D01*
X0211206Y0023905D01*
X0211135Y0024047D01*
X0211067Y0024190D01*
X0211003Y0024335D01*
X0210943Y0024481D01*
X0210887Y0024629D01*
X0210834Y0024778D01*
X0210785Y0024929D01*
X0210740Y0025081D01*
X0210699Y0025234D01*
X0210661Y0025387D01*
X0210628Y0025542D01*
X0210598Y0025698D01*
X0210572Y0025854D01*
X0210551Y0026011D01*
X0210533Y0026168D01*
X0210519Y0026326D01*
X0210509Y0026484D01*
X0210503Y0026642D01*
X0210501Y0026800D01*
X0210501Y0226800D02*
X0210503Y0226958D01*
X0210509Y0227116D01*
X0210519Y0227274D01*
X0210533Y0227432D01*
X0210551Y0227589D01*
X0210572Y0227746D01*
X0210598Y0227902D01*
X0210628Y0228058D01*
X0210661Y0228213D01*
X0210699Y0228366D01*
X0210740Y0228519D01*
X0210785Y0228671D01*
X0210834Y0228822D01*
X0210887Y0228971D01*
X0210943Y0229119D01*
X0211003Y0229265D01*
X0211067Y0229410D01*
X0211135Y0229553D01*
X0211206Y0229695D01*
X0211280Y0229835D01*
X0211358Y0229972D01*
X0211440Y0230108D01*
X0211524Y0230242D01*
X0211613Y0230373D01*
X0211704Y0230502D01*
X0211799Y0230629D01*
X0211896Y0230754D01*
X0211997Y0230876D01*
X0212101Y0230995D01*
X0212208Y0231112D01*
X0212318Y0231226D01*
X0212431Y0231337D01*
X0212546Y0231446D01*
X0212664Y0231551D01*
X0212785Y0231653D01*
X0212908Y0231753D01*
X0213034Y0231849D01*
X0213162Y0231942D01*
X0213292Y0232032D01*
X0213425Y0232118D01*
X0213560Y0232202D01*
X0213696Y0232281D01*
X0213835Y0232358D01*
X0213976Y0232430D01*
X0214118Y0232500D01*
X0214262Y0232565D01*
X0214408Y0232627D01*
X0214555Y0232685D01*
X0214704Y0232740D01*
X0214854Y0232791D01*
X0215005Y0232838D01*
X0215157Y0232881D01*
X0215310Y0232920D01*
X0215465Y0232956D01*
X0215620Y0232987D01*
X0215776Y0233015D01*
X0215932Y0233039D01*
X0216089Y0233059D01*
X0216247Y0233075D01*
X0216404Y0233087D01*
X0216563Y0233095D01*
X0216721Y0233099D01*
X0216879Y0233099D01*
X0217037Y0233095D01*
X0217196Y0233087D01*
X0217353Y0233075D01*
X0217511Y0233059D01*
X0217668Y0233039D01*
X0217824Y0233015D01*
X0217980Y0232987D01*
X0218135Y0232956D01*
X0218290Y0232920D01*
X0218443Y0232881D01*
X0218595Y0232838D01*
X0218746Y0232791D01*
X0218896Y0232740D01*
X0219045Y0232685D01*
X0219192Y0232627D01*
X0219338Y0232565D01*
X0219482Y0232500D01*
X0219624Y0232430D01*
X0219765Y0232358D01*
X0219904Y0232281D01*
X0220040Y0232202D01*
X0220175Y0232118D01*
X0220308Y0232032D01*
X0220438Y0231942D01*
X0220566Y0231849D01*
X0220692Y0231753D01*
X0220815Y0231653D01*
X0220936Y0231551D01*
X0221054Y0231446D01*
X0221169Y0231337D01*
X0221282Y0231226D01*
X0221392Y0231112D01*
X0221499Y0230995D01*
X0221603Y0230876D01*
X0221704Y0230754D01*
X0221801Y0230629D01*
X0221896Y0230502D01*
X0221987Y0230373D01*
X0222076Y0230242D01*
X0222160Y0230108D01*
X0222242Y0229972D01*
X0222320Y0229835D01*
X0222394Y0229695D01*
X0222465Y0229553D01*
X0222533Y0229410D01*
X0222597Y0229265D01*
X0222657Y0229119D01*
X0222713Y0228971D01*
X0222766Y0228822D01*
X0222815Y0228671D01*
X0222860Y0228519D01*
X0222901Y0228366D01*
X0222939Y0228213D01*
X0222972Y0228058D01*
X0223002Y0227902D01*
X0223028Y0227746D01*
X0223049Y0227589D01*
X0223067Y0227432D01*
X0223081Y0227274D01*
X0223091Y0227116D01*
X0223097Y0226958D01*
X0223099Y0226800D01*
X0223097Y0226642D01*
X0223091Y0226484D01*
X0223081Y0226326D01*
X0223067Y0226168D01*
X0223049Y0226011D01*
X0223028Y0225854D01*
X0223002Y0225698D01*
X0222972Y0225542D01*
X0222939Y0225387D01*
X0222901Y0225234D01*
X0222860Y0225081D01*
X0222815Y0224929D01*
X0222766Y0224778D01*
X0222713Y0224629D01*
X0222657Y0224481D01*
X0222597Y0224335D01*
X0222533Y0224190D01*
X0222465Y0224047D01*
X0222394Y0223905D01*
X0222320Y0223765D01*
X0222242Y0223628D01*
X0222160Y0223492D01*
X0222076Y0223358D01*
X0221987Y0223227D01*
X0221896Y0223098D01*
X0221801Y0222971D01*
X0221704Y0222846D01*
X0221603Y0222724D01*
X0221499Y0222605D01*
X0221392Y0222488D01*
X0221282Y0222374D01*
X0221169Y0222263D01*
X0221054Y0222154D01*
X0220936Y0222049D01*
X0220815Y0221947D01*
X0220692Y0221847D01*
X0220566Y0221751D01*
X0220438Y0221658D01*
X0220308Y0221568D01*
X0220175Y0221482D01*
X0220040Y0221398D01*
X0219904Y0221319D01*
X0219765Y0221242D01*
X0219624Y0221170D01*
X0219482Y0221100D01*
X0219338Y0221035D01*
X0219192Y0220973D01*
X0219045Y0220915D01*
X0218896Y0220860D01*
X0218746Y0220809D01*
X0218595Y0220762D01*
X0218443Y0220719D01*
X0218290Y0220680D01*
X0218135Y0220644D01*
X0217980Y0220613D01*
X0217824Y0220585D01*
X0217668Y0220561D01*
X0217511Y0220541D01*
X0217353Y0220525D01*
X0217196Y0220513D01*
X0217037Y0220505D01*
X0216879Y0220501D01*
X0216721Y0220501D01*
X0216563Y0220505D01*
X0216404Y0220513D01*
X0216247Y0220525D01*
X0216089Y0220541D01*
X0215932Y0220561D01*
X0215776Y0220585D01*
X0215620Y0220613D01*
X0215465Y0220644D01*
X0215310Y0220680D01*
X0215157Y0220719D01*
X0215005Y0220762D01*
X0214854Y0220809D01*
X0214704Y0220860D01*
X0214555Y0220915D01*
X0214408Y0220973D01*
X0214262Y0221035D01*
X0214118Y0221100D01*
X0213976Y0221170D01*
X0213835Y0221242D01*
X0213696Y0221319D01*
X0213560Y0221398D01*
X0213425Y0221482D01*
X0213292Y0221568D01*
X0213162Y0221658D01*
X0213034Y0221751D01*
X0212908Y0221847D01*
X0212785Y0221947D01*
X0212664Y0222049D01*
X0212546Y0222154D01*
X0212431Y0222263D01*
X0212318Y0222374D01*
X0212208Y0222488D01*
X0212101Y0222605D01*
X0211997Y0222724D01*
X0211896Y0222846D01*
X0211799Y0222971D01*
X0211704Y0223098D01*
X0211613Y0223227D01*
X0211524Y0223358D01*
X0211440Y0223492D01*
X0211358Y0223628D01*
X0211280Y0223765D01*
X0211206Y0223905D01*
X0211135Y0224047D01*
X0211067Y0224190D01*
X0211003Y0224335D01*
X0210943Y0224481D01*
X0210887Y0224629D01*
X0210834Y0224778D01*
X0210785Y0224929D01*
X0210740Y0225081D01*
X0210699Y0225234D01*
X0210661Y0225387D01*
X0210628Y0225542D01*
X0210598Y0225698D01*
X0210572Y0225854D01*
X0210551Y0226011D01*
X0210533Y0226168D01*
X0210519Y0226326D01*
X0210509Y0226484D01*
X0210503Y0226642D01*
X0210501Y0226800D01*
X0025501Y0226800D02*
X0025503Y0226958D01*
X0025509Y0227116D01*
X0025519Y0227274D01*
X0025533Y0227432D01*
X0025551Y0227589D01*
X0025572Y0227746D01*
X0025598Y0227902D01*
X0025628Y0228058D01*
X0025661Y0228213D01*
X0025699Y0228366D01*
X0025740Y0228519D01*
X0025785Y0228671D01*
X0025834Y0228822D01*
X0025887Y0228971D01*
X0025943Y0229119D01*
X0026003Y0229265D01*
X0026067Y0229410D01*
X0026135Y0229553D01*
X0026206Y0229695D01*
X0026280Y0229835D01*
X0026358Y0229972D01*
X0026440Y0230108D01*
X0026524Y0230242D01*
X0026613Y0230373D01*
X0026704Y0230502D01*
X0026799Y0230629D01*
X0026896Y0230754D01*
X0026997Y0230876D01*
X0027101Y0230995D01*
X0027208Y0231112D01*
X0027318Y0231226D01*
X0027431Y0231337D01*
X0027546Y0231446D01*
X0027664Y0231551D01*
X0027785Y0231653D01*
X0027908Y0231753D01*
X0028034Y0231849D01*
X0028162Y0231942D01*
X0028292Y0232032D01*
X0028425Y0232118D01*
X0028560Y0232202D01*
X0028696Y0232281D01*
X0028835Y0232358D01*
X0028976Y0232430D01*
X0029118Y0232500D01*
X0029262Y0232565D01*
X0029408Y0232627D01*
X0029555Y0232685D01*
X0029704Y0232740D01*
X0029854Y0232791D01*
X0030005Y0232838D01*
X0030157Y0232881D01*
X0030310Y0232920D01*
X0030465Y0232956D01*
X0030620Y0232987D01*
X0030776Y0233015D01*
X0030932Y0233039D01*
X0031089Y0233059D01*
X0031247Y0233075D01*
X0031404Y0233087D01*
X0031563Y0233095D01*
X0031721Y0233099D01*
X0031879Y0233099D01*
X0032037Y0233095D01*
X0032196Y0233087D01*
X0032353Y0233075D01*
X0032511Y0233059D01*
X0032668Y0233039D01*
X0032824Y0233015D01*
X0032980Y0232987D01*
X0033135Y0232956D01*
X0033290Y0232920D01*
X0033443Y0232881D01*
X0033595Y0232838D01*
X0033746Y0232791D01*
X0033896Y0232740D01*
X0034045Y0232685D01*
X0034192Y0232627D01*
X0034338Y0232565D01*
X0034482Y0232500D01*
X0034624Y0232430D01*
X0034765Y0232358D01*
X0034904Y0232281D01*
X0035040Y0232202D01*
X0035175Y0232118D01*
X0035308Y0232032D01*
X0035438Y0231942D01*
X0035566Y0231849D01*
X0035692Y0231753D01*
X0035815Y0231653D01*
X0035936Y0231551D01*
X0036054Y0231446D01*
X0036169Y0231337D01*
X0036282Y0231226D01*
X0036392Y0231112D01*
X0036499Y0230995D01*
X0036603Y0230876D01*
X0036704Y0230754D01*
X0036801Y0230629D01*
X0036896Y0230502D01*
X0036987Y0230373D01*
X0037076Y0230242D01*
X0037160Y0230108D01*
X0037242Y0229972D01*
X0037320Y0229835D01*
X0037394Y0229695D01*
X0037465Y0229553D01*
X0037533Y0229410D01*
X0037597Y0229265D01*
X0037657Y0229119D01*
X0037713Y0228971D01*
X0037766Y0228822D01*
X0037815Y0228671D01*
X0037860Y0228519D01*
X0037901Y0228366D01*
X0037939Y0228213D01*
X0037972Y0228058D01*
X0038002Y0227902D01*
X0038028Y0227746D01*
X0038049Y0227589D01*
X0038067Y0227432D01*
X0038081Y0227274D01*
X0038091Y0227116D01*
X0038097Y0226958D01*
X0038099Y0226800D01*
X0038097Y0226642D01*
X0038091Y0226484D01*
X0038081Y0226326D01*
X0038067Y0226168D01*
X0038049Y0226011D01*
X0038028Y0225854D01*
X0038002Y0225698D01*
X0037972Y0225542D01*
X0037939Y0225387D01*
X0037901Y0225234D01*
X0037860Y0225081D01*
X0037815Y0224929D01*
X0037766Y0224778D01*
X0037713Y0224629D01*
X0037657Y0224481D01*
X0037597Y0224335D01*
X0037533Y0224190D01*
X0037465Y0224047D01*
X0037394Y0223905D01*
X0037320Y0223765D01*
X0037242Y0223628D01*
X0037160Y0223492D01*
X0037076Y0223358D01*
X0036987Y0223227D01*
X0036896Y0223098D01*
X0036801Y0222971D01*
X0036704Y0222846D01*
X0036603Y0222724D01*
X0036499Y0222605D01*
X0036392Y0222488D01*
X0036282Y0222374D01*
X0036169Y0222263D01*
X0036054Y0222154D01*
X0035936Y0222049D01*
X0035815Y0221947D01*
X0035692Y0221847D01*
X0035566Y0221751D01*
X0035438Y0221658D01*
X0035308Y0221568D01*
X0035175Y0221482D01*
X0035040Y0221398D01*
X0034904Y0221319D01*
X0034765Y0221242D01*
X0034624Y0221170D01*
X0034482Y0221100D01*
X0034338Y0221035D01*
X0034192Y0220973D01*
X0034045Y0220915D01*
X0033896Y0220860D01*
X0033746Y0220809D01*
X0033595Y0220762D01*
X0033443Y0220719D01*
X0033290Y0220680D01*
X0033135Y0220644D01*
X0032980Y0220613D01*
X0032824Y0220585D01*
X0032668Y0220561D01*
X0032511Y0220541D01*
X0032353Y0220525D01*
X0032196Y0220513D01*
X0032037Y0220505D01*
X0031879Y0220501D01*
X0031721Y0220501D01*
X0031563Y0220505D01*
X0031404Y0220513D01*
X0031247Y0220525D01*
X0031089Y0220541D01*
X0030932Y0220561D01*
X0030776Y0220585D01*
X0030620Y0220613D01*
X0030465Y0220644D01*
X0030310Y0220680D01*
X0030157Y0220719D01*
X0030005Y0220762D01*
X0029854Y0220809D01*
X0029704Y0220860D01*
X0029555Y0220915D01*
X0029408Y0220973D01*
X0029262Y0221035D01*
X0029118Y0221100D01*
X0028976Y0221170D01*
X0028835Y0221242D01*
X0028696Y0221319D01*
X0028560Y0221398D01*
X0028425Y0221482D01*
X0028292Y0221568D01*
X0028162Y0221658D01*
X0028034Y0221751D01*
X0027908Y0221847D01*
X0027785Y0221947D01*
X0027664Y0222049D01*
X0027546Y0222154D01*
X0027431Y0222263D01*
X0027318Y0222374D01*
X0027208Y0222488D01*
X0027101Y0222605D01*
X0026997Y0222724D01*
X0026896Y0222846D01*
X0026799Y0222971D01*
X0026704Y0223098D01*
X0026613Y0223227D01*
X0026524Y0223358D01*
X0026440Y0223492D01*
X0026358Y0223628D01*
X0026280Y0223765D01*
X0026206Y0223905D01*
X0026135Y0224047D01*
X0026067Y0224190D01*
X0026003Y0224335D01*
X0025943Y0224481D01*
X0025887Y0224629D01*
X0025834Y0224778D01*
X0025785Y0224929D01*
X0025740Y0225081D01*
X0025699Y0225234D01*
X0025661Y0225387D01*
X0025628Y0225542D01*
X0025598Y0225698D01*
X0025572Y0225854D01*
X0025551Y0226011D01*
X0025533Y0226168D01*
X0025519Y0226326D01*
X0025509Y0226484D01*
X0025503Y0226642D01*
X0025501Y0226800D01*
M02*
