G75*
%MOIN*%
%OFA0B0*%
%FSLAX25Y25*%
%IPPOS*%
%LPD*%
%AMOC8*
5,1,8,0,0,1.08239X$1,22.5*
%
%ADD10R,0.25000X0.40000*%
%ADD11R,0.10000X0.15000*%
%ADD12R,0.07087X0.06299*%
%ADD13R,0.08465X0.07087*%
%ADD14R,0.07087X0.08465*%
%ADD15R,0.07087X0.06693*%
%ADD16C,0.05200*%
%ADD17R,0.08799X0.04799*%
%ADD18R,0.08661X0.14173*%
%ADD19C,0.06000*%
%ADD20C,0.06400*%
%ADD21C,0.05200*%
%ADD22R,0.07098X0.06299*%
%ADD23R,0.06299X0.07098*%
%ADD24R,0.03937X0.05512*%
%ADD25R,0.04724X0.04724*%
%ADD26R,0.05906X0.05118*%
%ADD27C,0.05937*%
%ADD28R,0.06299X0.07087*%
%ADD29OC8,0.05543*%
%ADD30R,0.05543X0.05543*%
%ADD31C,0.05543*%
%ADD32C,0.05000*%
%ADD33C,0.06000*%
%ADD34C,0.01000*%
%ADD35C,0.04000*%
%ADD36C,0.01600*%
%ADD37R,0.03962X0.03962*%
D10*
X0039300Y0196800D03*
X0039300Y0196800D03*
D11*
X0046800Y0224300D03*
D12*
X0191800Y0077312D03*
X0191800Y0066288D03*
X0046800Y0061288D03*
X0046800Y0072312D03*
D13*
X0070993Y0216800D03*
X0082607Y0216800D03*
D14*
X0091800Y0207607D03*
X0091800Y0195993D03*
D15*
X0088729Y0186800D03*
X0104871Y0186800D03*
X0113729Y0186800D03*
X0129871Y0186800D03*
X0129871Y0161800D03*
X0113729Y0161800D03*
X0104871Y0161800D03*
X0088729Y0161800D03*
X0089871Y0066800D03*
X0073729Y0066800D03*
X0073729Y0041800D03*
X0089871Y0041800D03*
D16*
X0091800Y0089200D02*
X0091800Y0094400D01*
X0081800Y0094400D02*
X0081800Y0089200D01*
X0071800Y0089200D02*
X0071800Y0094400D01*
X0061800Y0094400D02*
X0061800Y0089200D01*
X0051800Y0089200D02*
X0051800Y0094400D01*
X0051800Y0119200D02*
X0051800Y0124400D01*
X0061800Y0124400D02*
X0061800Y0119200D01*
X0071800Y0119200D02*
X0071800Y0124400D01*
X0081800Y0124400D02*
X0081800Y0119200D01*
X0091800Y0119200D02*
X0091800Y0124400D01*
X0101800Y0124400D02*
X0101800Y0119200D01*
X0111800Y0119200D02*
X0111800Y0124400D01*
X0121800Y0124400D02*
X0121800Y0119200D01*
X0131800Y0119200D02*
X0131800Y0124400D01*
X0141800Y0124400D02*
X0141800Y0119200D01*
X0151800Y0119200D02*
X0151800Y0124400D01*
X0161800Y0124400D02*
X0161800Y0119200D01*
X0171800Y0119200D02*
X0171800Y0124400D01*
X0181800Y0124400D02*
X0181800Y0119200D01*
X0181800Y0094400D02*
X0181800Y0089200D01*
X0171800Y0089200D02*
X0171800Y0094400D01*
X0161800Y0094400D02*
X0161800Y0089200D01*
X0151800Y0089200D02*
X0151800Y0094400D01*
X0141800Y0094400D02*
X0141800Y0089200D01*
X0131800Y0089200D02*
X0131800Y0094400D01*
X0121800Y0094400D02*
X0121800Y0089200D01*
X0111800Y0089200D02*
X0111800Y0094400D01*
X0101800Y0094400D02*
X0101800Y0089200D01*
D17*
X0069001Y0187702D03*
X0069001Y0196800D03*
X0069001Y0205898D03*
D18*
X0044599Y0196800D03*
D19*
X0213800Y0196800D02*
X0219800Y0196800D01*
X0219800Y0186800D02*
X0213800Y0186800D01*
X0213800Y0176800D02*
X0219800Y0176800D01*
X0219800Y0166800D02*
X0213800Y0166800D01*
X0213800Y0151800D02*
X0219800Y0151800D01*
X0219800Y0141800D02*
X0213800Y0141800D01*
X0213800Y0131800D02*
X0219800Y0131800D01*
X0219800Y0206800D02*
X0213800Y0206800D01*
D20*
X0191800Y0051800D03*
X0191800Y0041800D03*
X0181800Y0041800D03*
X0181800Y0051800D03*
X0171800Y0051800D03*
X0171800Y0041800D03*
D21*
X0146800Y0052300D03*
X0146800Y0071300D03*
D22*
X0056800Y0072398D03*
X0056800Y0061202D03*
X0146800Y0176202D03*
X0146800Y0187398D03*
X0146800Y0196202D03*
X0146800Y0207398D03*
X0131800Y0206202D03*
X0131800Y0217398D03*
X0166800Y0187398D03*
X0166800Y0176202D03*
D23*
X0166202Y0201800D03*
X0177398Y0201800D03*
X0177398Y0216800D03*
X0166202Y0216800D03*
X0122398Y0216800D03*
X0111202Y0216800D03*
X0102398Y0216800D03*
X0091202Y0216800D03*
X0077398Y0161800D03*
X0066202Y0161800D03*
X0057398Y0161800D03*
X0046202Y0161800D03*
X0116202Y0146800D03*
X0127398Y0146800D03*
X0112398Y0066800D03*
X0101202Y0066800D03*
X0087398Y0051800D03*
X0076202Y0051800D03*
D24*
X0065540Y0051131D03*
X0058060Y0051131D03*
X0061800Y0042469D03*
D25*
X0147666Y0161800D03*
X0155934Y0161800D03*
D26*
X0141800Y0145540D03*
X0141800Y0138060D03*
D27*
X0213831Y0111800D02*
X0219769Y0111800D01*
X0219769Y0101800D02*
X0213831Y0101800D01*
X0213831Y0091800D02*
X0219769Y0091800D01*
X0219769Y0081800D02*
X0213831Y0081800D01*
X0213831Y0071800D02*
X0219769Y0071800D01*
X0219769Y0061800D02*
X0213831Y0061800D01*
D28*
X0132312Y0136800D03*
X0121288Y0136800D03*
D29*
X0101488Y0031133D03*
X0091488Y0031133D03*
X0081488Y0031133D03*
X0071488Y0031133D03*
X0061488Y0031133D03*
D30*
X0111488Y0031133D03*
X0099359Y0172863D03*
D31*
X0089359Y0172863D03*
X0079359Y0172863D03*
X0069359Y0172863D03*
D32*
X0031800Y0091800D03*
X0031800Y0081800D03*
X0031800Y0071800D03*
D33*
X0031800Y0131800D03*
X0031800Y0141800D03*
X0031800Y0151800D03*
D34*
X0031800Y0141800D02*
X0032160Y0141489D01*
X0052038Y0141489D01*
X0071013Y0122515D01*
X0071800Y0121800D01*
X0061800Y0121800D02*
X0061074Y0122515D01*
X0046617Y0136971D01*
X0046617Y0137875D01*
X0041196Y0137875D02*
X0041196Y0133357D01*
X0026739Y0118900D01*
X0026739Y0080048D01*
X0030353Y0076434D01*
X0033967Y0076434D01*
X0037581Y0072820D01*
X0046617Y0072820D01*
X0046800Y0072312D01*
X0047520Y0071916D01*
X0056556Y0071916D01*
X0056800Y0072398D01*
X0056556Y0072820D01*
X0061977Y0066495D02*
X0057459Y0061977D01*
X0056800Y0061202D01*
X0057459Y0061074D01*
X0057459Y0051135D01*
X0058060Y0051131D01*
X0065540Y0051131D02*
X0065591Y0051135D01*
X0075530Y0051135D01*
X0076202Y0051800D01*
X0073729Y0041800D02*
X0073723Y0041196D01*
X0073723Y0033064D01*
X0072820Y0032160D01*
X0071488Y0031133D01*
X0071916Y0031257D01*
X0072820Y0032160D01*
X0079144Y0025835D01*
X0115286Y0025835D01*
X0117997Y0028546D01*
X0117997Y0033967D01*
X0134261Y0033967D01*
X0137875Y0037581D02*
X0140585Y0037581D01*
X0146007Y0032160D01*
X0197509Y0032160D01*
X0225519Y0060170D01*
X0225519Y0154139D01*
X0218290Y0161367D01*
X0211965Y0161367D01*
X0208351Y0164981D01*
X0208351Y0179438D01*
X0216483Y0187570D01*
X0216800Y0186800D01*
X0216800Y0196800D02*
X0216483Y0197509D01*
X0212869Y0201123D01*
X0177631Y0201123D01*
X0177398Y0201800D01*
X0182148Y0207448D02*
X0178534Y0211062D01*
X0162270Y0211062D01*
X0145103Y0228229D01*
X0081855Y0228229D01*
X0071013Y0217387D01*
X0070993Y0216800D01*
X0070109Y0216483D01*
X0070109Y0207448D01*
X0069206Y0206544D01*
X0069001Y0205898D01*
X0069206Y0197509D02*
X0069001Y0196800D01*
X0069206Y0197509D02*
X0075530Y0191184D01*
X0075530Y0189377D01*
X0083662Y0181245D01*
X0093601Y0181245D01*
X0094505Y0182148D01*
X0094505Y0183052D01*
X0097215Y0183052D01*
X0094505Y0183052D02*
X0094505Y0191184D01*
X0092698Y0192991D01*
X0092698Y0195702D01*
X0091800Y0195993D01*
X0085469Y0201123D02*
X0085469Y0190280D01*
X0088180Y0187570D01*
X0088729Y0186800D01*
X0099022Y0192991D02*
X0099022Y0196605D01*
X0099022Y0192991D02*
X0104444Y0187570D01*
X0104871Y0186800D01*
X0105347Y0186666D01*
X0113479Y0186666D01*
X0113729Y0186800D01*
X0111672Y0192991D02*
X0117997Y0192991D01*
X0119804Y0191184D01*
X0119804Y0182148D01*
X0111672Y0174017D01*
X0119804Y0165885D01*
X0119804Y0157753D01*
X0117093Y0155042D01*
X0117093Y0146910D01*
X0116202Y0146800D01*
X0117093Y0146007D01*
X0120707Y0142393D01*
X0120707Y0136971D01*
X0121288Y0136800D01*
X0127032Y0132454D02*
X0125225Y0130646D01*
X0117093Y0130646D01*
X0110769Y0136971D01*
X0110769Y0162270D01*
X0113729Y0161800D01*
X0113479Y0162270D01*
X0110769Y0162270D01*
X0105347Y0162270D01*
X0104871Y0161800D01*
X0099022Y0172209D02*
X0099359Y0172863D01*
X0099022Y0172209D02*
X0099022Y0146007D01*
X0117093Y0127936D01*
X0117093Y0117093D01*
X0114383Y0114383D01*
X0059267Y0114383D01*
X0043003Y0098119D01*
X0043003Y0092698D02*
X0050231Y0099926D01*
X0053845Y0099926D01*
X0061074Y0092698D01*
X0061800Y0091800D01*
X0061977Y0081855D02*
X0071916Y0091794D01*
X0071800Y0091800D01*
X0078241Y0083662D02*
X0080952Y0083662D01*
X0089083Y0075530D01*
X0089083Y0067398D01*
X0089871Y0066800D01*
X0089987Y0067398D01*
X0100830Y0067398D01*
X0101202Y0066800D01*
X0100830Y0066495D01*
X0100830Y0054749D01*
X0089987Y0043906D01*
X0089987Y0042099D01*
X0089871Y0041800D01*
X0087398Y0051800D02*
X0088180Y0052038D01*
X0092698Y0052038D01*
X0096312Y0055652D01*
X0112576Y0059267D02*
X0112576Y0066495D01*
X0112398Y0066800D01*
X0122515Y0069206D02*
X0122515Y0082759D01*
X0127032Y0087276D01*
X0127032Y0097215D01*
X0140585Y0110769D01*
X0139682Y0114383D02*
X0136971Y0117093D01*
X0136971Y0127032D01*
X0139682Y0129743D01*
X0174017Y0129743D01*
X0181245Y0122515D01*
X0181800Y0121800D01*
X0186666Y0127032D02*
X0186666Y0106251D01*
X0176727Y0096312D01*
X0165885Y0107154D01*
X0162270Y0100830D02*
X0166788Y0096312D01*
X0166788Y0066495D01*
X0181245Y0052038D01*
X0181800Y0051800D01*
X0189377Y0053845D02*
X0191184Y0052038D01*
X0191800Y0051800D01*
X0189377Y0053845D01*
X0197509Y0061977D01*
X0197509Y0071013D01*
X0192087Y0076434D01*
X0191800Y0077312D01*
X0185763Y0071916D02*
X0185763Y0086373D01*
X0208351Y0108961D01*
X0208351Y0114383D01*
X0218290Y0124322D01*
X0220097Y0124322D01*
X0216800Y0131800D02*
X0216483Y0132454D01*
X0195702Y0132454D01*
X0160463Y0167692D01*
X0160463Y0203833D01*
X0146910Y0217387D01*
X0132454Y0217387D01*
X0131800Y0217398D01*
X0131550Y0217387D01*
X0122515Y0217387D01*
X0122398Y0216800D01*
X0117093Y0221001D02*
X0117093Y0211965D01*
X0119804Y0209255D01*
X0111672Y0216483D02*
X0111672Y0198412D01*
X0111672Y0192991D02*
X0097215Y0207448D01*
X0092698Y0207448D01*
X0091800Y0207607D01*
X0091794Y0208351D01*
X0091794Y0216483D01*
X0091202Y0216800D01*
X0090891Y0217387D01*
X0082759Y0217387D01*
X0082607Y0216800D01*
X0091800Y0207607D02*
X0091794Y0207448D01*
X0085469Y0201123D01*
X0069001Y0187702D02*
X0068302Y0187570D01*
X0068302Y0179438D01*
X0106251Y0179438D01*
X0111672Y0174017D01*
X0121611Y0170402D02*
X0129743Y0162270D01*
X0129871Y0161800D01*
X0130646Y0161367D01*
X0130646Y0153235D01*
X0133357Y0150524D01*
X0133357Y0137875D01*
X0132454Y0136971D01*
X0132312Y0136800D01*
X0132454Y0136068D01*
X0132454Y0122515D01*
X0131800Y0121800D01*
X0131550Y0121611D01*
X0112576Y0102637D01*
X0112576Y0092698D01*
X0111800Y0091800D01*
X0111672Y0091794D01*
X0117997Y0085469D01*
X0117997Y0033967D01*
X0130646Y0041196D02*
X0139682Y0041196D01*
X0146910Y0033967D01*
X0182148Y0033967D01*
X0189377Y0041196D01*
X0191184Y0041196D01*
X0191800Y0041800D01*
X0201123Y0041196D02*
X0201123Y0076434D01*
X0216483Y0091794D01*
X0216800Y0091800D01*
X0191800Y0066288D02*
X0191184Y0066495D01*
X0185763Y0071916D01*
X0176727Y0066495D02*
X0189377Y0053845D01*
X0181800Y0041800D02*
X0181245Y0041196D01*
X0179438Y0041196D01*
X0174017Y0035774D01*
X0169499Y0035774D01*
X0152331Y0052942D01*
X0152331Y0081855D01*
X0146910Y0087276D01*
X0146910Y0117093D01*
X0142393Y0121611D01*
X0141800Y0121800D01*
X0142393Y0114383D02*
X0139682Y0114383D01*
X0142393Y0114383D02*
X0144200Y0112576D01*
X0144200Y0108961D01*
X0136971Y0101733D01*
X0136971Y0099926D01*
X0132454Y0091794D02*
X0131800Y0091800D01*
X0132454Y0091794D02*
X0132454Y0066495D01*
X0146007Y0052942D01*
X0146800Y0052300D01*
X0156849Y0056556D02*
X0171306Y0042099D01*
X0171800Y0041800D01*
X0156849Y0056556D02*
X0156849Y0096312D01*
X0152331Y0100830D01*
X0152331Y0121611D01*
X0151800Y0121800D01*
X0161800Y0121800D02*
X0162270Y0121611D01*
X0162270Y0100830D01*
X0176727Y0096312D02*
X0176727Y0066495D01*
X0146800Y0071300D02*
X0146007Y0071916D01*
X0142393Y0075530D01*
X0142393Y0091794D01*
X0141800Y0091800D01*
X0172209Y0118900D02*
X0183052Y0108058D01*
X0190280Y0108058D02*
X0190280Y0132454D01*
X0174920Y0147814D01*
X0182148Y0151428D02*
X0178534Y0155042D01*
X0182148Y0151428D02*
X0185763Y0151428D01*
X0187570Y0153235D01*
X0187570Y0178534D01*
X0171306Y0194798D01*
X0166788Y0201123D02*
X0166202Y0201800D01*
X0165885Y0202026D01*
X0146910Y0221001D01*
X0154139Y0224615D02*
X0161367Y0217387D01*
X0165885Y0217387D01*
X0166202Y0216800D01*
X0177398Y0216800D02*
X0177631Y0216483D01*
X0207448Y0216483D01*
X0216483Y0207448D01*
X0216800Y0206800D01*
X0215580Y0211965D02*
X0221904Y0211965D01*
X0225519Y0208351D01*
X0225519Y0174920D01*
X0217387Y0166788D01*
X0216800Y0166800D01*
X0216483Y0154139D02*
X0195702Y0174920D01*
X0195702Y0195702D01*
X0183956Y0207448D02*
X0182148Y0207448D01*
X0166788Y0201123D02*
X0166788Y0187570D01*
X0166800Y0187398D01*
X0166800Y0176202D02*
X0167692Y0175824D01*
X0167692Y0171306D01*
X0183956Y0155042D01*
X0186666Y0127032D02*
X0155946Y0157753D01*
X0155946Y0161367D01*
X0155934Y0161800D01*
X0155042Y0162270D01*
X0155042Y0172209D01*
X0155042Y0181245D01*
X0146800Y0176202D02*
X0146007Y0175824D01*
X0125225Y0175824D01*
X0121611Y0178534D02*
X0121611Y0170402D01*
X0121611Y0178534D02*
X0124322Y0181245D01*
X0123418Y0181245D01*
X0124322Y0181245D02*
X0129743Y0186666D01*
X0129871Y0186800D01*
X0130646Y0186666D01*
X0146007Y0186666D01*
X0146800Y0187398D01*
X0146910Y0187570D01*
X0146910Y0195702D01*
X0146800Y0196202D01*
X0156849Y0196605D02*
X0146910Y0206544D01*
X0146800Y0207398D01*
X0131800Y0206202D02*
X0131550Y0205641D01*
X0131550Y0193894D01*
X0111672Y0216483D02*
X0111202Y0216800D01*
X0110769Y0217387D01*
X0102637Y0217387D01*
X0102398Y0216800D01*
X0104444Y0224615D02*
X0113479Y0224615D01*
X0117093Y0221001D01*
X0074627Y0231843D02*
X0195702Y0231843D01*
X0215580Y0211965D01*
X0216483Y0154139D02*
X0216483Y0152331D01*
X0216800Y0151800D01*
X0172209Y0121611D02*
X0172209Y0118900D01*
X0172209Y0121611D02*
X0171800Y0121800D01*
X0148717Y0143296D02*
X0148717Y0146910D01*
X0148717Y0143296D02*
X0144200Y0138778D01*
X0142393Y0138778D01*
X0141800Y0138060D01*
X0141800Y0145540D02*
X0141489Y0146007D01*
X0137875Y0149621D01*
X0137875Y0159560D01*
X0139682Y0161367D01*
X0146910Y0161367D01*
X0147666Y0161800D01*
X0151428Y0155946D02*
X0143296Y0155946D01*
X0141489Y0157753D01*
X0127032Y0154139D02*
X0127032Y0146910D01*
X0127398Y0146800D01*
X0127032Y0146007D01*
X0127032Y0132454D01*
X0111672Y0130646D02*
X0111672Y0122515D01*
X0111800Y0121800D01*
X0111672Y0130646D02*
X0089083Y0153235D01*
X0089083Y0161367D01*
X0088729Y0161800D01*
X0088180Y0162270D01*
X0078241Y0162270D01*
X0077398Y0161800D01*
X0077337Y0162270D01*
X0071916Y0167692D01*
X0067398Y0167692D01*
X0063784Y0171306D01*
X0063784Y0174920D01*
X0068302Y0179438D01*
X0061977Y0184859D02*
X0061977Y0219194D01*
X0074627Y0231843D01*
X0061977Y0184859D02*
X0046617Y0169499D01*
X0046617Y0162270D01*
X0046202Y0161800D01*
X0057398Y0161800D02*
X0057459Y0162270D01*
X0065591Y0162270D01*
X0066202Y0161800D01*
X0066495Y0161367D01*
X0066495Y0147814D01*
X0091794Y0122515D01*
X0091800Y0121800D01*
X0062881Y0145103D02*
X0062881Y0152331D01*
X0052038Y0148717D02*
X0052038Y0146910D01*
X0061074Y0137875D01*
X0051800Y0121800D02*
X0052038Y0121611D01*
X0059267Y0114383D01*
X0043003Y0092698D02*
X0032160Y0092698D01*
X0031800Y0091800D01*
X0032160Y0081855D02*
X0031800Y0081800D01*
X0032160Y0081855D02*
X0061977Y0081855D01*
X0061977Y0066495D02*
X0073723Y0066495D01*
X0073729Y0066800D01*
X0074627Y0067398D01*
X0080952Y0073723D01*
X0085469Y0073723D01*
X0056556Y0061977D02*
X0056800Y0061202D01*
X0061800Y0042469D02*
X0061977Y0042099D01*
X0061977Y0031257D01*
X0061488Y0031133D01*
X0032160Y0071013D02*
X0031800Y0071800D01*
D35*
X0043003Y0098119D03*
X0078241Y0083662D03*
X0085469Y0073723D03*
X0096312Y0055652D03*
X0112576Y0059267D03*
X0122515Y0069206D03*
X0130646Y0041196D03*
X0134261Y0033967D03*
X0137875Y0037581D03*
X0136971Y0099926D03*
X0140585Y0110769D03*
X0165885Y0107154D03*
X0183052Y0108058D03*
X0190280Y0108058D03*
X0220097Y0124322D03*
X0183956Y0155042D03*
X0178534Y0155042D03*
X0174920Y0147814D03*
X0155042Y0172209D03*
X0155042Y0181245D03*
X0156849Y0196605D03*
X0171306Y0194798D03*
X0183956Y0207448D03*
X0195702Y0195702D03*
X0154139Y0224615D03*
X0146910Y0221001D03*
X0119804Y0209255D03*
X0111672Y0198412D03*
X0099022Y0196605D03*
X0097215Y0183052D03*
X0123418Y0181245D03*
X0125225Y0175824D03*
X0131550Y0193894D03*
X0104444Y0224615D03*
X0081855Y0228229D03*
X0141489Y0157753D03*
X0151428Y0155946D03*
X0148717Y0146910D03*
X0127032Y0154139D03*
X0062881Y0152331D03*
X0062881Y0145103D03*
X0061074Y0137875D03*
X0052038Y0148717D03*
X0046617Y0137875D03*
X0041196Y0137875D03*
X0201123Y0041196D03*
D36*
X0026600Y0036614D02*
X0026600Y0076086D01*
X0028337Y0074349D01*
X0028122Y0074054D01*
X0027815Y0073451D01*
X0027606Y0072807D01*
X0027518Y0072250D01*
X0031350Y0072250D01*
X0031350Y0071350D01*
X0032250Y0071350D01*
X0032250Y0067518D01*
X0032807Y0067606D01*
X0033451Y0067815D01*
X0034054Y0068122D01*
X0034601Y0068520D01*
X0035080Y0068999D01*
X0035478Y0069546D01*
X0035785Y0070149D01*
X0035875Y0070425D01*
X0035939Y0070361D01*
X0037005Y0069920D01*
X0040857Y0069920D01*
X0040857Y0068685D01*
X0041222Y0067803D01*
X0041897Y0067128D01*
X0042779Y0066762D01*
X0050821Y0066762D01*
X0051703Y0067128D01*
X0051840Y0067265D01*
X0051891Y0067214D01*
X0052773Y0066849D01*
X0060827Y0066849D01*
X0061709Y0067214D01*
X0062384Y0067889D01*
X0062749Y0068771D01*
X0062749Y0076025D01*
X0062384Y0076908D01*
X0061709Y0077583D01*
X0060827Y0077948D01*
X0052773Y0077948D01*
X0051891Y0077583D01*
X0051754Y0077445D01*
X0051703Y0077496D01*
X0050821Y0077861D01*
X0042779Y0077861D01*
X0041897Y0077496D01*
X0041222Y0076821D01*
X0040857Y0075939D01*
X0040857Y0075720D01*
X0038783Y0075720D01*
X0035716Y0078786D01*
X0035885Y0078955D01*
X0062554Y0078955D01*
X0063620Y0079397D01*
X0069121Y0084898D01*
X0070805Y0084200D01*
X0072795Y0084200D01*
X0073889Y0084653D01*
X0073841Y0084537D01*
X0073841Y0082787D01*
X0074511Y0081170D01*
X0075749Y0079932D01*
X0077366Y0079262D01*
X0079116Y0079262D01*
X0080625Y0079887D01*
X0086183Y0074329D01*
X0086183Y0072546D01*
X0085850Y0072546D01*
X0084968Y0072181D01*
X0084293Y0071506D01*
X0083928Y0070624D01*
X0083928Y0062976D01*
X0084293Y0062094D01*
X0084968Y0061419D01*
X0085850Y0061054D01*
X0093892Y0061054D01*
X0094774Y0061419D01*
X0095449Y0062094D01*
X0095691Y0062679D01*
X0096017Y0061891D01*
X0096692Y0061216D01*
X0097575Y0060851D01*
X0097930Y0060851D01*
X0097930Y0059745D01*
X0097187Y0060052D01*
X0095437Y0060052D01*
X0093819Y0059382D01*
X0092582Y0058145D01*
X0092161Y0057130D01*
X0091908Y0057384D01*
X0091025Y0057749D01*
X0083771Y0057749D01*
X0082889Y0057384D01*
X0082214Y0056709D01*
X0081849Y0055827D01*
X0081849Y0047773D01*
X0082214Y0046891D01*
X0082889Y0046216D01*
X0083771Y0045851D01*
X0084022Y0045851D01*
X0083928Y0045624D01*
X0083928Y0037976D01*
X0084293Y0037094D01*
X0084968Y0036419D01*
X0085850Y0036054D01*
X0089095Y0036054D01*
X0086488Y0033447D01*
X0083630Y0036305D01*
X0079346Y0036305D01*
X0076623Y0033582D01*
X0076623Y0036054D01*
X0077750Y0036054D01*
X0078632Y0036419D01*
X0079307Y0037094D01*
X0079672Y0037976D01*
X0079672Y0045624D01*
X0079578Y0045851D01*
X0079829Y0045851D01*
X0080711Y0046216D01*
X0081386Y0046891D01*
X0081751Y0047773D01*
X0081751Y0055827D01*
X0081386Y0056709D01*
X0080711Y0057384D01*
X0079829Y0057749D01*
X0072575Y0057749D01*
X0071692Y0057384D01*
X0071017Y0056709D01*
X0070652Y0055827D01*
X0070652Y0054035D01*
X0069909Y0054035D01*
X0069909Y0054364D01*
X0069543Y0055246D01*
X0068868Y0055921D01*
X0067986Y0056287D01*
X0063094Y0056287D01*
X0062212Y0055921D01*
X0061537Y0055246D01*
X0061443Y0055018D01*
X0061134Y0055327D01*
X0060723Y0055564D01*
X0060265Y0055687D01*
X0058244Y0055687D01*
X0058244Y0051315D01*
X0057876Y0051315D01*
X0057876Y0055687D01*
X0055854Y0055687D01*
X0055397Y0055564D01*
X0054986Y0055327D01*
X0054651Y0054992D01*
X0054414Y0054581D01*
X0054291Y0054124D01*
X0054291Y0051315D01*
X0057876Y0051315D01*
X0057876Y0050946D01*
X0054291Y0050946D01*
X0054291Y0048138D01*
X0054414Y0047680D01*
X0054651Y0047270D01*
X0054986Y0046934D01*
X0055397Y0046697D01*
X0055854Y0046575D01*
X0057793Y0046575D01*
X0057431Y0045703D01*
X0057431Y0039236D01*
X0057797Y0038354D01*
X0058472Y0037679D01*
X0059077Y0037428D01*
X0059077Y0036036D01*
X0056316Y0033275D01*
X0056316Y0028991D01*
X0059346Y0025961D01*
X0063630Y0025961D01*
X0066488Y0028819D01*
X0069346Y0025961D01*
X0073630Y0025961D01*
X0074274Y0026605D01*
X0076686Y0024193D01*
X0077502Y0023377D01*
X0078568Y0022935D01*
X0115863Y0022935D01*
X0116929Y0023377D01*
X0119640Y0026088D01*
X0120455Y0026903D01*
X0120897Y0027969D01*
X0120897Y0031067D01*
X0130938Y0031067D01*
X0131768Y0030237D01*
X0133385Y0029567D01*
X0135136Y0029567D01*
X0136753Y0030237D01*
X0137991Y0031475D01*
X0138661Y0033092D01*
X0138661Y0033181D01*
X0138750Y0033181D01*
X0140259Y0033807D01*
X0143548Y0030518D01*
X0144364Y0029702D01*
X0145430Y0029260D01*
X0198086Y0029260D01*
X0199151Y0029702D01*
X0199967Y0030518D01*
X0227161Y0057712D01*
X0227977Y0058527D01*
X0228418Y0059593D01*
X0228418Y0154715D01*
X0227977Y0155781D01*
X0221924Y0161835D01*
X0222859Y0162222D01*
X0224378Y0163741D01*
X0225200Y0165726D01*
X0225200Y0167874D01*
X0224431Y0169731D01*
X0227977Y0173277D01*
X0228418Y0174343D01*
X0228418Y0208928D01*
X0227977Y0209994D01*
X0227161Y0210810D01*
X0223547Y0214424D01*
X0222481Y0214865D01*
X0216781Y0214865D01*
X0215945Y0215701D01*
X0218261Y0215701D01*
X0221084Y0216457D01*
X0223615Y0217918D01*
X0225682Y0219985D01*
X0227143Y0222516D01*
X0227899Y0225339D01*
X0227899Y0228261D01*
X0227143Y0231084D01*
X0226637Y0231961D01*
X0230701Y0231961D01*
X0230701Y0021600D01*
X0226614Y0021600D01*
X0227143Y0022516D01*
X0227899Y0025339D01*
X0227899Y0028261D01*
X0227143Y0031084D01*
X0225682Y0033615D01*
X0223615Y0035682D01*
X0221084Y0037143D01*
X0218261Y0037899D01*
X0215339Y0037899D01*
X0212516Y0037143D01*
X0209985Y0035682D01*
X0207918Y0033615D01*
X0206457Y0031084D01*
X0205701Y0028261D01*
X0205701Y0025339D01*
X0206457Y0022516D01*
X0206986Y0021600D01*
X0041614Y0021600D01*
X0042143Y0022516D01*
X0042899Y0025339D01*
X0042899Y0028261D01*
X0042143Y0031084D01*
X0040682Y0033615D01*
X0038615Y0035682D01*
X0036084Y0037143D01*
X0033261Y0037899D01*
X0030339Y0037899D01*
X0027516Y0037143D01*
X0026600Y0036614D01*
X0026600Y0037581D02*
X0029150Y0037581D01*
X0026600Y0039179D02*
X0057455Y0039179D01*
X0057431Y0040778D02*
X0026600Y0040778D01*
X0026600Y0042376D02*
X0057431Y0042376D01*
X0057431Y0043975D02*
X0026600Y0043975D01*
X0026600Y0045573D02*
X0057431Y0045573D01*
X0054749Y0047172D02*
X0026600Y0047172D01*
X0026600Y0048770D02*
X0054291Y0048770D01*
X0054291Y0050369D02*
X0026600Y0050369D01*
X0026600Y0051967D02*
X0054291Y0051967D01*
X0054291Y0053566D02*
X0026600Y0053566D01*
X0026600Y0055164D02*
X0054823Y0055164D01*
X0056025Y0056252D02*
X0053014Y0056252D01*
X0052556Y0056375D01*
X0052146Y0056612D01*
X0051810Y0056947D01*
X0051769Y0057019D01*
X0051449Y0056698D01*
X0051038Y0056461D01*
X0050580Y0056339D01*
X0047575Y0056339D01*
X0047575Y0060513D01*
X0046025Y0060513D01*
X0046025Y0056339D01*
X0043020Y0056339D01*
X0042562Y0056461D01*
X0042151Y0056698D01*
X0041816Y0057033D01*
X0041579Y0057444D01*
X0041457Y0057902D01*
X0041457Y0060513D01*
X0046025Y0060513D01*
X0046025Y0062063D01*
X0041457Y0062063D01*
X0041457Y0064675D01*
X0041579Y0065133D01*
X0041816Y0065543D01*
X0042151Y0065878D01*
X0042562Y0066115D01*
X0043020Y0066238D01*
X0046025Y0066238D01*
X0046025Y0062063D01*
X0047575Y0062063D01*
X0051451Y0062063D01*
X0051451Y0061976D01*
X0056025Y0061976D01*
X0056025Y0060427D01*
X0052143Y0060427D01*
X0052143Y0060513D01*
X0047575Y0060513D01*
X0047575Y0062063D01*
X0047575Y0066238D01*
X0050580Y0066238D01*
X0051038Y0066115D01*
X0051449Y0065878D01*
X0051784Y0065543D01*
X0051825Y0065471D01*
X0052146Y0065792D01*
X0052556Y0066029D01*
X0053014Y0066151D01*
X0056025Y0066151D01*
X0056025Y0061976D01*
X0057575Y0061976D01*
X0062149Y0061976D01*
X0062149Y0064588D01*
X0062027Y0065046D01*
X0061790Y0065456D01*
X0061454Y0065792D01*
X0061044Y0066029D01*
X0060586Y0066151D01*
X0057575Y0066151D01*
X0057575Y0061976D01*
X0057575Y0060427D01*
X0062149Y0060427D01*
X0062149Y0057815D01*
X0062027Y0057357D01*
X0061790Y0056947D01*
X0061454Y0056612D01*
X0061044Y0056375D01*
X0060586Y0056252D01*
X0057575Y0056252D01*
X0057575Y0060427D01*
X0056025Y0060427D01*
X0056025Y0056252D01*
X0056025Y0056763D02*
X0057575Y0056763D01*
X0057575Y0058361D02*
X0056025Y0058361D01*
X0056025Y0059960D02*
X0057575Y0059960D01*
X0057575Y0061558D02*
X0084829Y0061558D01*
X0083928Y0063157D02*
X0079056Y0063157D01*
X0079072Y0063217D02*
X0079072Y0066000D01*
X0074529Y0066000D01*
X0074529Y0061654D01*
X0077509Y0061654D01*
X0077967Y0061776D01*
X0078378Y0062013D01*
X0078713Y0062348D01*
X0078950Y0062759D01*
X0079072Y0063217D01*
X0079072Y0064755D02*
X0083928Y0064755D01*
X0083928Y0066354D02*
X0074529Y0066354D01*
X0074529Y0066000D02*
X0074529Y0067600D01*
X0072929Y0067600D01*
X0072929Y0066000D01*
X0068386Y0066000D01*
X0068386Y0063217D01*
X0068508Y0062759D01*
X0068745Y0062348D01*
X0069081Y0062013D01*
X0069491Y0061776D01*
X0069949Y0061654D01*
X0072929Y0061654D01*
X0072929Y0066000D01*
X0074529Y0066000D01*
X0074529Y0064755D02*
X0072929Y0064755D01*
X0072929Y0063157D02*
X0074529Y0063157D01*
X0072929Y0066354D02*
X0026600Y0066354D01*
X0026600Y0067952D02*
X0029880Y0067952D01*
X0030149Y0067815D02*
X0030793Y0067606D01*
X0031350Y0067518D01*
X0031350Y0071350D01*
X0027518Y0071350D01*
X0027606Y0070793D01*
X0027815Y0070149D01*
X0028122Y0069546D01*
X0028520Y0068999D01*
X0028999Y0068520D01*
X0029546Y0068122D01*
X0030149Y0067815D01*
X0031350Y0067952D02*
X0032250Y0067952D01*
X0033720Y0067952D02*
X0041160Y0067952D01*
X0040857Y0069551D02*
X0035480Y0069551D01*
X0032250Y0069551D02*
X0031350Y0069551D01*
X0031350Y0071149D02*
X0032250Y0071149D01*
X0028120Y0069551D02*
X0026600Y0069551D01*
X0026600Y0071149D02*
X0027549Y0071149D01*
X0027597Y0072748D02*
X0026600Y0072748D01*
X0026600Y0074346D02*
X0028335Y0074346D01*
X0026741Y0075945D02*
X0026600Y0075945D01*
X0036959Y0077543D02*
X0042012Y0077543D01*
X0040859Y0075945D02*
X0038557Y0075945D01*
X0041478Y0064755D02*
X0026600Y0064755D01*
X0026600Y0063157D02*
X0041457Y0063157D01*
X0041457Y0059960D02*
X0026600Y0059960D01*
X0026600Y0061558D02*
X0046025Y0061558D01*
X0047575Y0061558D02*
X0056025Y0061558D01*
X0056025Y0063157D02*
X0057575Y0063157D01*
X0057575Y0064755D02*
X0056025Y0064755D01*
X0062104Y0064755D02*
X0068386Y0064755D01*
X0068402Y0063157D02*
X0062149Y0063157D01*
X0062149Y0059960D02*
X0095213Y0059960D01*
X0094913Y0061558D02*
X0096350Y0061558D01*
X0097410Y0059960D02*
X0097930Y0059960D01*
X0092798Y0058361D02*
X0062149Y0058361D01*
X0061606Y0056763D02*
X0071071Y0056763D01*
X0070652Y0055164D02*
X0069577Y0055164D01*
X0061503Y0055164D02*
X0061296Y0055164D01*
X0058244Y0055164D02*
X0057876Y0055164D01*
X0057876Y0053566D02*
X0058244Y0053566D01*
X0058244Y0051967D02*
X0057876Y0051967D01*
X0051994Y0056763D02*
X0051513Y0056763D01*
X0047575Y0056763D02*
X0046025Y0056763D01*
X0046025Y0058361D02*
X0047575Y0058361D01*
X0047575Y0059960D02*
X0046025Y0059960D01*
X0046025Y0063157D02*
X0047575Y0063157D01*
X0047575Y0064755D02*
X0046025Y0064755D01*
X0041457Y0058361D02*
X0026600Y0058361D01*
X0026600Y0056763D02*
X0042087Y0056763D01*
X0034450Y0037581D02*
X0058709Y0037581D01*
X0059023Y0035982D02*
X0038094Y0035982D01*
X0039913Y0034384D02*
X0057425Y0034384D01*
X0056316Y0032785D02*
X0041161Y0032785D01*
X0042084Y0031187D02*
X0056316Y0031187D01*
X0056316Y0029588D02*
X0042544Y0029588D01*
X0042899Y0027990D02*
X0057318Y0027990D01*
X0058916Y0026391D02*
X0042899Y0026391D01*
X0042753Y0024793D02*
X0076086Y0024793D01*
X0074488Y0026391D02*
X0074060Y0026391D01*
X0077943Y0023194D02*
X0042325Y0023194D01*
X0064060Y0026391D02*
X0068916Y0026391D01*
X0067318Y0027990D02*
X0065658Y0027990D01*
X0076623Y0034384D02*
X0077425Y0034384D01*
X0076623Y0035982D02*
X0079023Y0035982D01*
X0079509Y0037581D02*
X0084091Y0037581D01*
X0083953Y0035982D02*
X0089023Y0035982D01*
X0087425Y0034384D02*
X0085551Y0034384D01*
X0083928Y0039179D02*
X0079672Y0039179D01*
X0079672Y0040778D02*
X0083928Y0040778D01*
X0083928Y0042376D02*
X0079672Y0042376D01*
X0079672Y0043975D02*
X0083928Y0043975D01*
X0083928Y0045573D02*
X0079672Y0045573D01*
X0081502Y0047172D02*
X0082098Y0047172D01*
X0081849Y0048770D02*
X0081751Y0048770D01*
X0081751Y0050369D02*
X0081849Y0050369D01*
X0081849Y0051967D02*
X0081751Y0051967D01*
X0081751Y0053566D02*
X0081849Y0053566D01*
X0081849Y0055164D02*
X0081751Y0055164D01*
X0081332Y0056763D02*
X0082268Y0056763D01*
X0079072Y0067600D02*
X0074529Y0067600D01*
X0074529Y0071946D01*
X0077509Y0071946D01*
X0077967Y0071824D01*
X0078378Y0071587D01*
X0078713Y0071252D01*
X0078950Y0070841D01*
X0079072Y0070383D01*
X0079072Y0067600D01*
X0079072Y0067952D02*
X0083928Y0067952D01*
X0083928Y0069551D02*
X0079072Y0069551D01*
X0078772Y0071149D02*
X0084145Y0071149D01*
X0086183Y0072748D02*
X0062749Y0072748D01*
X0062749Y0074346D02*
X0086166Y0074346D01*
X0084568Y0075945D02*
X0062749Y0075945D01*
X0061748Y0077543D02*
X0082969Y0077543D01*
X0081371Y0079142D02*
X0063005Y0079142D01*
X0064964Y0080740D02*
X0074940Y0080740D01*
X0074027Y0082339D02*
X0066562Y0082339D01*
X0068161Y0083937D02*
X0073841Y0083937D01*
X0072929Y0071946D02*
X0069949Y0071946D01*
X0069491Y0071824D01*
X0069081Y0071587D01*
X0068745Y0071252D01*
X0068508Y0070841D01*
X0068386Y0070383D01*
X0068386Y0067600D01*
X0072929Y0067600D01*
X0072929Y0071946D01*
X0072929Y0071149D02*
X0074529Y0071149D01*
X0074529Y0069551D02*
X0072929Y0069551D01*
X0072929Y0067952D02*
X0074529Y0067952D01*
X0068386Y0067952D02*
X0062410Y0067952D01*
X0062749Y0069551D02*
X0068386Y0069551D01*
X0068686Y0071149D02*
X0062749Y0071149D01*
X0051852Y0077543D02*
X0051588Y0077543D01*
X0096418Y0117283D02*
X0096800Y0118205D01*
X0096800Y0125395D01*
X0096039Y0127232D01*
X0094632Y0128639D01*
X0092795Y0129400D01*
X0090805Y0129400D01*
X0089536Y0128874D01*
X0069395Y0149015D01*
X0069395Y0155851D01*
X0069829Y0155851D01*
X0070711Y0156216D01*
X0071386Y0156891D01*
X0071751Y0157773D01*
X0071751Y0165827D01*
X0071386Y0166709D01*
X0070711Y0167384D01*
X0069968Y0167691D01*
X0070388Y0167691D01*
X0072289Y0168479D01*
X0073743Y0169933D01*
X0074359Y0171420D01*
X0074975Y0169933D01*
X0076430Y0168479D01*
X0078330Y0167691D01*
X0080388Y0167691D01*
X0082289Y0168479D01*
X0083743Y0169933D01*
X0084359Y0171420D01*
X0084975Y0169933D01*
X0086430Y0168479D01*
X0088330Y0167691D01*
X0090388Y0167691D01*
X0092289Y0168479D01*
X0093743Y0169933D01*
X0094187Y0171005D01*
X0094187Y0169614D01*
X0094553Y0168732D01*
X0095228Y0168057D01*
X0096110Y0167691D01*
X0096122Y0167691D01*
X0096122Y0145430D01*
X0096564Y0144364D01*
X0097380Y0143548D01*
X0112128Y0128800D01*
X0111800Y0128800D01*
X0111800Y0121800D01*
X0111800Y0121800D01*
X0111800Y0121800D01*
X0107400Y0121800D01*
X0107400Y0124746D01*
X0107508Y0125430D01*
X0107722Y0126089D01*
X0108037Y0126706D01*
X0108444Y0127266D01*
X0108934Y0127756D01*
X0109494Y0128163D01*
X0110111Y0128478D01*
X0110770Y0128692D01*
X0111454Y0128800D01*
X0111800Y0128800D01*
X0111800Y0121800D01*
X0107400Y0121800D01*
X0107400Y0118854D01*
X0107508Y0118170D01*
X0107722Y0117511D01*
X0107839Y0117283D01*
X0106418Y0117283D01*
X0106800Y0118205D01*
X0106800Y0125395D01*
X0106039Y0127232D01*
X0104632Y0128639D01*
X0102795Y0129400D01*
X0100805Y0129400D01*
X0098968Y0128639D01*
X0097561Y0127232D01*
X0096800Y0125395D01*
X0096800Y0118205D01*
X0097182Y0117283D01*
X0096418Y0117283D01*
X0096510Y0117506D02*
X0097090Y0117506D01*
X0096800Y0119105D02*
X0096800Y0119105D01*
X0096800Y0120703D02*
X0096800Y0120703D01*
X0096800Y0122302D02*
X0096800Y0122302D01*
X0096800Y0123900D02*
X0096800Y0123900D01*
X0096757Y0125499D02*
X0096843Y0125499D01*
X0097505Y0127097D02*
X0096095Y0127097D01*
X0094495Y0128696D02*
X0099105Y0128696D01*
X0104495Y0128696D02*
X0110796Y0128696D01*
X0111800Y0128696D02*
X0111800Y0128696D01*
X0111800Y0127097D02*
X0111800Y0127097D01*
X0111800Y0125499D02*
X0111800Y0125499D01*
X0111800Y0123900D02*
X0111800Y0123900D01*
X0111800Y0122302D02*
X0111800Y0122302D01*
X0107400Y0122302D02*
X0106800Y0122302D01*
X0106800Y0123900D02*
X0107400Y0123900D01*
X0107531Y0125499D02*
X0106757Y0125499D01*
X0106095Y0127097D02*
X0108321Y0127097D01*
X0110634Y0130294D02*
X0088116Y0130294D01*
X0086517Y0131893D02*
X0109035Y0131893D01*
X0107437Y0133491D02*
X0084919Y0133491D01*
X0083320Y0135090D02*
X0105838Y0135090D01*
X0104240Y0136688D02*
X0081722Y0136688D01*
X0080123Y0138287D02*
X0102641Y0138287D01*
X0101043Y0139885D02*
X0078524Y0139885D01*
X0076926Y0141484D02*
X0099444Y0141484D01*
X0097846Y0143082D02*
X0075327Y0143082D01*
X0073729Y0144681D02*
X0096433Y0144681D01*
X0096122Y0146279D02*
X0072130Y0146279D01*
X0070532Y0147878D02*
X0096122Y0147878D01*
X0096122Y0149476D02*
X0069395Y0149476D01*
X0069395Y0151075D02*
X0096122Y0151075D01*
X0096122Y0152673D02*
X0069395Y0152673D01*
X0069395Y0154272D02*
X0096122Y0154272D01*
X0096122Y0155870D02*
X0069876Y0155870D01*
X0071625Y0157469D02*
X0072622Y0157469D01*
X0072571Y0157556D02*
X0072808Y0157146D01*
X0073144Y0156810D01*
X0073554Y0156573D01*
X0074012Y0156451D01*
X0076624Y0156451D01*
X0076624Y0161025D01*
X0078173Y0161025D01*
X0078173Y0156451D01*
X0080785Y0156451D01*
X0081243Y0156573D01*
X0081653Y0156810D01*
X0081988Y0157146D01*
X0082225Y0157556D01*
X0082348Y0158014D01*
X0082348Y0161025D01*
X0078173Y0161025D01*
X0078173Y0162575D01*
X0076624Y0162575D01*
X0076624Y0167149D01*
X0074012Y0167149D01*
X0073554Y0167027D01*
X0073144Y0166790D01*
X0072808Y0166454D01*
X0072571Y0166044D01*
X0072449Y0165586D01*
X0072449Y0162575D01*
X0076624Y0162575D01*
X0076624Y0161025D01*
X0072449Y0161025D01*
X0072449Y0158014D01*
X0072571Y0157556D01*
X0072449Y0159068D02*
X0071751Y0159068D01*
X0071751Y0160666D02*
X0072449Y0160666D01*
X0071751Y0162265D02*
X0076624Y0162265D01*
X0078173Y0162265D02*
X0087929Y0162265D01*
X0087929Y0162600D02*
X0087929Y0161000D01*
X0083386Y0161000D01*
X0083386Y0158217D01*
X0083508Y0157759D01*
X0083745Y0157348D01*
X0084081Y0157013D01*
X0084491Y0156776D01*
X0084949Y0156654D01*
X0087929Y0156654D01*
X0087929Y0161000D01*
X0089529Y0161000D01*
X0089529Y0156654D01*
X0092509Y0156654D01*
X0092967Y0156776D01*
X0093378Y0157013D01*
X0093713Y0157348D01*
X0093950Y0157759D01*
X0094072Y0158217D01*
X0094072Y0161000D01*
X0089529Y0161000D01*
X0089529Y0162600D01*
X0087929Y0162600D01*
X0083386Y0162600D01*
X0083386Y0165383D01*
X0083508Y0165841D01*
X0083745Y0166252D01*
X0084081Y0166587D01*
X0084491Y0166824D01*
X0084949Y0166946D01*
X0087929Y0166946D01*
X0087929Y0162600D01*
X0087929Y0163863D02*
X0089529Y0163863D01*
X0089529Y0162600D02*
X0089529Y0166946D01*
X0092509Y0166946D01*
X0092967Y0166824D01*
X0093378Y0166587D01*
X0093713Y0166252D01*
X0093950Y0165841D01*
X0094072Y0165383D01*
X0094072Y0162600D01*
X0089529Y0162600D01*
X0089529Y0162265D02*
X0096122Y0162265D01*
X0096122Y0163863D02*
X0094072Y0163863D01*
X0094052Y0165462D02*
X0096122Y0165462D01*
X0096122Y0167060D02*
X0081118Y0167060D01*
X0081243Y0167027D02*
X0080785Y0167149D01*
X0078173Y0167149D01*
X0078173Y0162575D01*
X0082348Y0162575D01*
X0082348Y0165586D01*
X0082225Y0166044D01*
X0081988Y0166454D01*
X0081653Y0166790D01*
X0081243Y0167027D01*
X0082348Y0165462D02*
X0083407Y0165462D01*
X0083386Y0163863D02*
X0082348Y0163863D01*
X0082348Y0160666D02*
X0083386Y0160666D01*
X0083386Y0159068D02*
X0082348Y0159068D01*
X0082175Y0157469D02*
X0083676Y0157469D01*
X0087929Y0157469D02*
X0089529Y0157469D01*
X0089529Y0159068D02*
X0087929Y0159068D01*
X0087929Y0160666D02*
X0089529Y0160666D01*
X0094072Y0160666D02*
X0096122Y0160666D01*
X0096122Y0159068D02*
X0094072Y0159068D01*
X0093782Y0157469D02*
X0096122Y0157469D01*
X0089529Y0165462D02*
X0087929Y0165462D01*
X0086250Y0168659D02*
X0082468Y0168659D01*
X0083877Y0170257D02*
X0084841Y0170257D01*
X0084359Y0174306D02*
X0083743Y0175792D01*
X0082289Y0177247D01*
X0080388Y0178035D01*
X0078330Y0178035D01*
X0076430Y0177247D01*
X0074975Y0175792D01*
X0074359Y0174306D01*
X0073743Y0175792D01*
X0072289Y0177247D01*
X0070388Y0178035D01*
X0068330Y0178035D01*
X0066430Y0177247D01*
X0064975Y0175792D01*
X0064187Y0173892D01*
X0064187Y0171834D01*
X0064975Y0169933D01*
X0066430Y0168479D01*
X0068191Y0167749D01*
X0062575Y0167749D01*
X0061800Y0167428D01*
X0061025Y0167749D01*
X0053771Y0167749D01*
X0052889Y0167384D01*
X0052214Y0166709D01*
X0051849Y0165827D01*
X0051849Y0157773D01*
X0052214Y0156891D01*
X0052889Y0156216D01*
X0053771Y0155851D01*
X0060177Y0155851D01*
X0059151Y0154824D01*
X0058481Y0153207D01*
X0058481Y0151456D01*
X0059151Y0149839D01*
X0059981Y0149009D01*
X0059981Y0148426D01*
X0059151Y0147596D01*
X0058481Y0145978D01*
X0058481Y0144569D01*
X0056078Y0146972D01*
X0056438Y0147842D01*
X0056438Y0149593D01*
X0055768Y0151210D01*
X0054531Y0152447D01*
X0052913Y0153117D01*
X0051163Y0153117D01*
X0049546Y0152447D01*
X0048308Y0151210D01*
X0047638Y0149593D01*
X0047638Y0147842D01*
X0048308Y0146225D01*
X0049546Y0144987D01*
X0050082Y0144765D01*
X0050458Y0144389D01*
X0036573Y0144389D01*
X0036378Y0144859D01*
X0034859Y0146378D01*
X0033840Y0146800D01*
X0034859Y0147222D01*
X0036378Y0148741D01*
X0037200Y0150726D01*
X0037200Y0152874D01*
X0036378Y0154859D01*
X0034859Y0156378D01*
X0032874Y0157200D01*
X0030726Y0157200D01*
X0028741Y0156378D01*
X0027222Y0154859D01*
X0026600Y0153357D01*
X0026600Y0174400D01*
X0047417Y0174400D01*
X0044158Y0171142D01*
X0043717Y0170076D01*
X0043717Y0167749D01*
X0042575Y0167749D01*
X0041692Y0167384D01*
X0041017Y0166709D01*
X0040652Y0165827D01*
X0040652Y0157773D01*
X0041017Y0156891D01*
X0041692Y0156216D01*
X0042575Y0155851D01*
X0049829Y0155851D01*
X0050711Y0156216D01*
X0051386Y0156891D01*
X0051751Y0157773D01*
X0051751Y0165827D01*
X0051386Y0166709D01*
X0050711Y0167384D01*
X0049829Y0167749D01*
X0049517Y0167749D01*
X0049517Y0168298D01*
X0063620Y0182401D01*
X0064436Y0183216D01*
X0064554Y0183502D01*
X0068601Y0183502D01*
X0068601Y0187302D01*
X0064877Y0187302D01*
X0064877Y0188101D01*
X0068601Y0188101D01*
X0068601Y0187302D01*
X0069401Y0187302D01*
X0069401Y0183502D01*
X0073637Y0183502D01*
X0074095Y0183625D01*
X0074506Y0183862D01*
X0074841Y0184197D01*
X0075078Y0184607D01*
X0075200Y0185065D01*
X0075200Y0185605D01*
X0082019Y0178786D01*
X0083085Y0178345D01*
X0094178Y0178345D01*
X0095244Y0178786D01*
X0095470Y0179012D01*
X0096340Y0178652D01*
X0098091Y0178652D01*
X0099708Y0179322D01*
X0100945Y0180560D01*
X0101150Y0181054D01*
X0108892Y0181054D01*
X0109300Y0181223D01*
X0109708Y0181054D01*
X0117750Y0181054D01*
X0118632Y0181419D01*
X0119018Y0181805D01*
X0119018Y0180370D01*
X0119125Y0180111D01*
X0118711Y0179111D01*
X0118711Y0169826D01*
X0119153Y0168760D01*
X0123928Y0163985D01*
X0123928Y0157976D01*
X0124138Y0157467D01*
X0123302Y0156631D01*
X0122632Y0155014D01*
X0122632Y0153263D01*
X0122981Y0152422D01*
X0122889Y0152384D01*
X0122214Y0151709D01*
X0121849Y0150827D01*
X0121849Y0142773D01*
X0122110Y0142143D01*
X0122063Y0142143D01*
X0122063Y0137575D01*
X0120513Y0137575D01*
X0120513Y0136025D01*
X0116339Y0136025D01*
X0116339Y0135502D01*
X0113668Y0138172D01*
X0113668Y0141451D01*
X0115427Y0141451D01*
X0115427Y0146025D01*
X0116976Y0146025D01*
X0116976Y0141727D01*
X0116698Y0141449D01*
X0116461Y0141038D01*
X0116339Y0140580D01*
X0116339Y0137575D01*
X0120513Y0137575D01*
X0120513Y0141867D01*
X0120792Y0142146D01*
X0121029Y0142556D01*
X0121151Y0143014D01*
X0121151Y0146025D01*
X0116976Y0146025D01*
X0116976Y0147575D01*
X0115427Y0147575D01*
X0115427Y0152149D01*
X0113668Y0152149D01*
X0113668Y0156054D01*
X0117750Y0156054D01*
X0118632Y0156419D01*
X0119307Y0157094D01*
X0119672Y0157976D01*
X0119672Y0165624D01*
X0119307Y0166506D01*
X0118632Y0167181D01*
X0117750Y0167546D01*
X0109708Y0167546D01*
X0109300Y0167377D01*
X0108892Y0167546D01*
X0101922Y0167546D01*
X0101922Y0167691D01*
X0102608Y0167691D01*
X0103490Y0168057D01*
X0104165Y0168732D01*
X0104531Y0169614D01*
X0104531Y0176112D01*
X0104165Y0176994D01*
X0103490Y0177669D01*
X0102608Y0178035D01*
X0096110Y0178035D01*
X0095228Y0177669D01*
X0094553Y0176994D01*
X0094187Y0176112D01*
X0094187Y0174720D01*
X0093743Y0175792D01*
X0092289Y0177247D01*
X0090388Y0178035D01*
X0088330Y0178035D01*
X0086430Y0177247D01*
X0084975Y0175792D01*
X0084359Y0174306D01*
X0084050Y0175053D02*
X0084668Y0175053D01*
X0085833Y0176651D02*
X0082885Y0176651D01*
X0080958Y0179848D02*
X0061067Y0179848D01*
X0059469Y0178250D02*
X0118711Y0178250D01*
X0118711Y0176651D02*
X0104307Y0176651D01*
X0104531Y0175053D02*
X0118711Y0175053D01*
X0118711Y0173454D02*
X0104531Y0173454D01*
X0104531Y0171856D02*
X0118711Y0171856D01*
X0118711Y0170257D02*
X0104531Y0170257D01*
X0104092Y0168659D02*
X0119254Y0168659D01*
X0118753Y0167060D02*
X0120852Y0167060D01*
X0119672Y0165462D02*
X0122451Y0165462D01*
X0123928Y0163863D02*
X0119672Y0163863D01*
X0119672Y0162265D02*
X0123928Y0162265D01*
X0123928Y0160666D02*
X0119672Y0160666D01*
X0119672Y0159068D02*
X0123928Y0159068D01*
X0124138Y0157469D02*
X0119462Y0157469D01*
X0122987Y0155870D02*
X0113668Y0155870D01*
X0113668Y0154272D02*
X0122632Y0154272D01*
X0122877Y0152673D02*
X0113668Y0152673D01*
X0115427Y0151075D02*
X0116976Y0151075D01*
X0116976Y0152149D02*
X0116976Y0147575D01*
X0121151Y0147575D01*
X0121151Y0150586D01*
X0121029Y0151044D01*
X0120792Y0151454D01*
X0120456Y0151790D01*
X0120046Y0152027D01*
X0119588Y0152149D01*
X0116976Y0152149D01*
X0116976Y0149476D02*
X0115427Y0149476D01*
X0115427Y0147878D02*
X0116976Y0147878D01*
X0116976Y0146279D02*
X0121849Y0146279D01*
X0121849Y0144681D02*
X0121151Y0144681D01*
X0121151Y0143082D02*
X0121849Y0143082D01*
X0122063Y0141484D02*
X0120513Y0141484D01*
X0120513Y0139885D02*
X0122063Y0139885D01*
X0122063Y0138287D02*
X0120513Y0138287D01*
X0120513Y0136688D02*
X0115153Y0136688D01*
X0116339Y0138287D02*
X0113668Y0138287D01*
X0113668Y0139885D02*
X0116339Y0139885D01*
X0116734Y0141484D02*
X0115427Y0141484D01*
X0115427Y0143082D02*
X0116976Y0143082D01*
X0116976Y0144681D02*
X0115427Y0144681D01*
X0121151Y0147878D02*
X0121849Y0147878D01*
X0121849Y0149476D02*
X0121151Y0149476D01*
X0121011Y0151075D02*
X0121952Y0151075D01*
X0135814Y0161600D02*
X0135814Y0165624D01*
X0135449Y0166506D01*
X0134774Y0167181D01*
X0133892Y0167546D01*
X0128568Y0167546D01*
X0124691Y0171424D01*
X0126100Y0171424D01*
X0127718Y0172093D01*
X0128548Y0172924D01*
X0140851Y0172924D01*
X0140851Y0172575D01*
X0141216Y0171692D01*
X0141891Y0171017D01*
X0142773Y0170652D01*
X0150827Y0170652D01*
X0151709Y0171017D01*
X0152384Y0171692D01*
X0152749Y0172575D01*
X0152749Y0179829D01*
X0152384Y0180711D01*
X0151709Y0181386D01*
X0150827Y0181751D01*
X0142773Y0181751D01*
X0141891Y0181386D01*
X0141216Y0180711D01*
X0140851Y0179829D01*
X0140851Y0178724D01*
X0128548Y0178724D01*
X0127718Y0179554D01*
X0127515Y0179638D01*
X0127818Y0180370D01*
X0127818Y0180640D01*
X0128232Y0181054D01*
X0133892Y0181054D01*
X0134774Y0181419D01*
X0135449Y0182094D01*
X0135814Y0182976D01*
X0135814Y0183766D01*
X0140853Y0183766D01*
X0141216Y0182889D01*
X0141891Y0182214D01*
X0142773Y0181849D01*
X0150827Y0181849D01*
X0151709Y0182214D01*
X0152384Y0182889D01*
X0152749Y0183771D01*
X0152749Y0191025D01*
X0152428Y0191800D01*
X0152749Y0192575D01*
X0152749Y0195006D01*
X0153119Y0194113D01*
X0154357Y0192875D01*
X0155974Y0192205D01*
X0157563Y0192205D01*
X0157563Y0167115D01*
X0158005Y0166049D01*
X0158092Y0165962D01*
X0156315Y0165962D01*
X0156315Y0162181D01*
X0160096Y0162181D01*
X0160096Y0163958D01*
X0172486Y0151568D01*
X0172428Y0151544D01*
X0171190Y0150306D01*
X0170520Y0148689D01*
X0170520Y0146939D01*
X0171190Y0145321D01*
X0172428Y0144084D01*
X0174045Y0143414D01*
X0175219Y0143414D01*
X0187380Y0131252D01*
X0187380Y0111380D01*
X0186666Y0110666D01*
X0185544Y0111788D01*
X0183927Y0112458D01*
X0182753Y0112458D01*
X0181011Y0114200D01*
X0182795Y0114200D01*
X0184632Y0114961D01*
X0186039Y0116368D01*
X0186800Y0118205D01*
X0186800Y0125395D01*
X0186039Y0127232D01*
X0184632Y0128639D01*
X0182795Y0129400D01*
X0180805Y0129400D01*
X0179147Y0128713D01*
X0175659Y0132201D01*
X0174593Y0132643D01*
X0139105Y0132643D01*
X0138039Y0132201D01*
X0137223Y0131386D01*
X0135354Y0129516D01*
X0135354Y0130857D01*
X0135939Y0130857D01*
X0136821Y0131222D01*
X0137496Y0131897D01*
X0137861Y0132779D01*
X0137861Y0133311D01*
X0138370Y0133101D01*
X0145230Y0133101D01*
X0146112Y0133466D01*
X0146787Y0134141D01*
X0147153Y0135023D01*
X0147153Y0137630D01*
X0151176Y0141653D01*
X0151617Y0142719D01*
X0151617Y0143588D01*
X0152447Y0144418D01*
X0153117Y0146035D01*
X0153117Y0147785D01*
X0152447Y0149403D01*
X0151210Y0150640D01*
X0149593Y0151310D01*
X0147842Y0151310D01*
X0146225Y0150640D01*
X0145834Y0150249D01*
X0145230Y0150499D01*
X0141098Y0150499D01*
X0140775Y0150822D01*
X0140775Y0153353D01*
X0141978Y0153353D01*
X0142719Y0153046D01*
X0148105Y0153046D01*
X0148936Y0152216D01*
X0150553Y0151546D01*
X0152303Y0151546D01*
X0153920Y0152216D01*
X0155158Y0153453D01*
X0155828Y0155070D01*
X0155828Y0156821D01*
X0155490Y0157638D01*
X0155553Y0157638D01*
X0155553Y0161419D01*
X0156315Y0161419D01*
X0156315Y0162181D01*
X0155553Y0162181D01*
X0155553Y0165962D01*
X0153335Y0165962D01*
X0152877Y0165840D01*
X0152466Y0165603D01*
X0152157Y0165294D01*
X0152063Y0165522D01*
X0151388Y0166197D01*
X0150506Y0166562D01*
X0144827Y0166562D01*
X0143944Y0166197D01*
X0143269Y0165522D01*
X0142904Y0164640D01*
X0142904Y0164267D01*
X0139105Y0164267D01*
X0138039Y0163825D01*
X0136232Y0162018D01*
X0135814Y0161600D01*
X0135814Y0162265D02*
X0136478Y0162265D01*
X0135814Y0163863D02*
X0138130Y0163863D01*
X0135814Y0165462D02*
X0143244Y0165462D01*
X0141149Y0171856D02*
X0127143Y0171856D01*
X0125858Y0170257D02*
X0157563Y0170257D01*
X0157563Y0168659D02*
X0127456Y0168659D01*
X0134895Y0167060D02*
X0157586Y0167060D01*
X0156315Y0165462D02*
X0155553Y0165462D01*
X0155553Y0163863D02*
X0156315Y0163863D01*
X0156315Y0162265D02*
X0155553Y0162265D01*
X0156315Y0161419D02*
X0160096Y0161419D01*
X0160096Y0159201D01*
X0159973Y0158743D01*
X0159736Y0158333D01*
X0159401Y0157997D01*
X0158991Y0157760D01*
X0158533Y0157638D01*
X0156315Y0157638D01*
X0156315Y0161419D01*
X0156315Y0160666D02*
X0155553Y0160666D01*
X0155553Y0159068D02*
X0156315Y0159068D01*
X0155559Y0157469D02*
X0166585Y0157469D01*
X0168183Y0155870D02*
X0155828Y0155870D01*
X0155497Y0154272D02*
X0169782Y0154272D01*
X0171380Y0152673D02*
X0154378Y0152673D01*
X0152374Y0149476D02*
X0170846Y0149476D01*
X0170520Y0147878D02*
X0153079Y0147878D01*
X0153117Y0146279D02*
X0170793Y0146279D01*
X0171830Y0144681D02*
X0152556Y0144681D01*
X0151617Y0143082D02*
X0175550Y0143082D01*
X0177149Y0141484D02*
X0151006Y0141484D01*
X0149408Y0139885D02*
X0178747Y0139885D01*
X0180346Y0138287D02*
X0147809Y0138287D01*
X0147153Y0136688D02*
X0181944Y0136688D01*
X0183543Y0135090D02*
X0147153Y0135090D01*
X0146137Y0133491D02*
X0185141Y0133491D01*
X0186740Y0131893D02*
X0175968Y0131893D01*
X0177566Y0130294D02*
X0187380Y0130294D01*
X0187380Y0128696D02*
X0184495Y0128696D01*
X0186095Y0127097D02*
X0187380Y0127097D01*
X0187380Y0125499D02*
X0186757Y0125499D01*
X0186800Y0123900D02*
X0187380Y0123900D01*
X0187380Y0122302D02*
X0186800Y0122302D01*
X0186800Y0120703D02*
X0187380Y0120703D01*
X0187380Y0119105D02*
X0186800Y0119105D01*
X0186510Y0117506D02*
X0187380Y0117506D01*
X0187380Y0115908D02*
X0185579Y0115908D01*
X0187380Y0114309D02*
X0183058Y0114309D01*
X0182500Y0112711D02*
X0187380Y0112711D01*
X0187112Y0111112D02*
X0186220Y0111112D01*
X0186666Y0105450D02*
X0185544Y0104328D01*
X0183927Y0103658D01*
X0182177Y0103658D01*
X0180560Y0104328D01*
X0179322Y0105565D01*
X0178652Y0107183D01*
X0178652Y0108357D01*
X0172805Y0114204D01*
X0172795Y0114200D01*
X0170805Y0114200D01*
X0168968Y0114961D01*
X0167561Y0116368D01*
X0166800Y0118205D01*
X0166800Y0125395D01*
X0167400Y0126843D01*
X0166200Y0126843D01*
X0166800Y0125395D01*
X0166800Y0118205D01*
X0166039Y0116368D01*
X0165170Y0115499D01*
X0165170Y0102031D01*
X0168431Y0098770D01*
X0168431Y0098770D01*
X0168765Y0098436D01*
X0168968Y0098639D01*
X0170805Y0099400D01*
X0172795Y0099400D01*
X0174632Y0098639D01*
X0176039Y0097232D01*
X0176800Y0095395D01*
X0176800Y0088205D01*
X0177561Y0086368D01*
X0178968Y0084961D01*
X0180805Y0084200D01*
X0182795Y0084200D01*
X0182863Y0084228D01*
X0182863Y0071339D01*
X0183304Y0070273D01*
X0184120Y0069458D01*
X0185857Y0067721D01*
X0185857Y0062661D01*
X0186222Y0061779D01*
X0186897Y0061104D01*
X0187779Y0060739D01*
X0195821Y0060739D01*
X0196703Y0061104D01*
X0197378Y0061779D01*
X0197743Y0062661D01*
X0197743Y0069915D01*
X0197378Y0070797D01*
X0196703Y0071472D01*
X0195821Y0071838D01*
X0189942Y0071838D01*
X0189418Y0072362D01*
X0191025Y0072362D01*
X0191025Y0076537D01*
X0192575Y0076537D01*
X0192575Y0078087D01*
X0191025Y0078087D01*
X0191025Y0082261D01*
X0188663Y0082261D01*
X0188663Y0085172D01*
X0209994Y0106503D01*
X0210765Y0107274D01*
X0210790Y0107249D01*
X0211874Y0106800D01*
X0210790Y0106351D01*
X0209280Y0104841D01*
X0208463Y0102868D01*
X0208463Y0100732D01*
X0209280Y0098759D01*
X0210790Y0097249D01*
X0211874Y0096800D01*
X0210790Y0096351D01*
X0209280Y0094841D01*
X0208463Y0092868D01*
X0208463Y0090732D01*
X0209280Y0088759D01*
X0209314Y0088726D01*
X0199480Y0078892D01*
X0198664Y0078077D01*
X0198223Y0077011D01*
X0198223Y0044518D01*
X0197393Y0043688D01*
X0197236Y0043310D01*
X0196547Y0044972D01*
X0194972Y0046547D01*
X0193584Y0047122D01*
X0193719Y0047166D01*
X0194421Y0047524D01*
X0195057Y0047986D01*
X0195614Y0048543D01*
X0196076Y0049179D01*
X0196434Y0049881D01*
X0196677Y0050629D01*
X0196800Y0051406D01*
X0196800Y0051714D01*
X0191886Y0051714D01*
X0191886Y0051886D01*
X0191714Y0051886D01*
X0191714Y0056800D01*
X0191406Y0056800D01*
X0190629Y0056677D01*
X0189881Y0056434D01*
X0189179Y0056076D01*
X0188543Y0055614D01*
X0187986Y0055057D01*
X0187524Y0054421D01*
X0187166Y0053719D01*
X0187122Y0053584D01*
X0186547Y0054972D01*
X0184972Y0056547D01*
X0182914Y0057400D01*
X0180686Y0057400D01*
X0180190Y0057194D01*
X0169688Y0067696D01*
X0169688Y0084663D01*
X0170805Y0084200D01*
X0172795Y0084200D01*
X0174632Y0084961D01*
X0176039Y0086368D01*
X0176800Y0088205D01*
X0176800Y0095395D01*
X0177561Y0097232D01*
X0178968Y0098639D01*
X0180805Y0099400D01*
X0182795Y0099400D01*
X0184632Y0098639D01*
X0186039Y0097232D01*
X0186800Y0095395D01*
X0186800Y0091511D01*
X0205451Y0110163D01*
X0205451Y0114960D01*
X0205893Y0116025D01*
X0215832Y0125964D01*
X0216145Y0126278D01*
X0216196Y0126400D01*
X0212726Y0126400D01*
X0210741Y0127222D01*
X0209222Y0128741D01*
X0208886Y0129554D01*
X0195125Y0129554D01*
X0194059Y0129995D01*
X0193243Y0130811D01*
X0193180Y0130874D01*
X0193180Y0111380D01*
X0194010Y0110550D01*
X0194680Y0108933D01*
X0194680Y0107183D01*
X0194010Y0105565D01*
X0192773Y0104328D01*
X0191156Y0103658D01*
X0189405Y0103658D01*
X0187788Y0104328D01*
X0186666Y0105450D01*
X0185935Y0104718D02*
X0187398Y0104718D01*
X0193163Y0104718D02*
X0200007Y0104718D01*
X0201605Y0106317D02*
X0194322Y0106317D01*
X0194680Y0107915D02*
X0203204Y0107915D01*
X0204802Y0109514D02*
X0194440Y0109514D01*
X0193449Y0111112D02*
X0205451Y0111112D01*
X0205451Y0112711D02*
X0193180Y0112711D01*
X0193180Y0114309D02*
X0205451Y0114309D01*
X0205844Y0115908D02*
X0193180Y0115908D01*
X0193180Y0117506D02*
X0207373Y0117506D01*
X0208972Y0119105D02*
X0193180Y0119105D01*
X0193180Y0120703D02*
X0210571Y0120703D01*
X0212169Y0122302D02*
X0193180Y0122302D01*
X0193180Y0123900D02*
X0213768Y0123900D01*
X0215366Y0125499D02*
X0193180Y0125499D01*
X0193180Y0127097D02*
X0211042Y0127097D01*
X0209267Y0128696D02*
X0193180Y0128696D01*
X0193180Y0130294D02*
X0193760Y0130294D01*
X0196903Y0135354D02*
X0183728Y0148528D01*
X0186339Y0148528D01*
X0187405Y0148969D01*
X0189212Y0150777D01*
X0190028Y0151592D01*
X0190470Y0152658D01*
X0190470Y0179111D01*
X0190028Y0180177D01*
X0175706Y0194499D01*
X0175706Y0195673D01*
X0175632Y0195851D01*
X0181025Y0195851D01*
X0181908Y0196216D01*
X0182583Y0196891D01*
X0182948Y0197773D01*
X0182948Y0198223D01*
X0192000Y0198223D01*
X0191971Y0198194D01*
X0191302Y0196577D01*
X0191302Y0194826D01*
X0191971Y0193209D01*
X0192802Y0192379D01*
X0192802Y0174343D01*
X0193243Y0173277D01*
X0194059Y0172462D01*
X0210442Y0156079D01*
X0209222Y0154859D01*
X0208400Y0152874D01*
X0208400Y0150726D01*
X0209222Y0148741D01*
X0210741Y0147222D01*
X0212593Y0146455D01*
X0211957Y0146248D01*
X0211284Y0145905D01*
X0210673Y0145461D01*
X0210139Y0144927D01*
X0209695Y0144316D01*
X0209352Y0143643D01*
X0209118Y0142924D01*
X0209000Y0142178D01*
X0209000Y0142000D01*
X0216600Y0142000D01*
X0216600Y0141600D01*
X0209000Y0141600D01*
X0209000Y0141422D01*
X0209118Y0140676D01*
X0209352Y0139957D01*
X0209695Y0139284D01*
X0210139Y0138673D01*
X0210673Y0138139D01*
X0211284Y0137695D01*
X0211957Y0137352D01*
X0212593Y0137145D01*
X0210741Y0136378D01*
X0209717Y0135354D01*
X0196903Y0135354D01*
X0195568Y0136688D02*
X0211491Y0136688D01*
X0210525Y0138287D02*
X0193969Y0138287D01*
X0192371Y0139885D02*
X0209388Y0139885D01*
X0209000Y0141484D02*
X0190772Y0141484D01*
X0189174Y0143082D02*
X0209170Y0143082D01*
X0209960Y0144681D02*
X0187575Y0144681D01*
X0185977Y0146279D02*
X0212053Y0146279D01*
X0210085Y0147878D02*
X0184378Y0147878D01*
X0187912Y0149476D02*
X0208918Y0149476D01*
X0208400Y0151075D02*
X0189511Y0151075D01*
X0190470Y0152673D02*
X0208400Y0152673D01*
X0208979Y0154272D02*
X0190470Y0154272D01*
X0190470Y0155870D02*
X0210234Y0155870D01*
X0209051Y0157469D02*
X0190470Y0157469D01*
X0190470Y0159068D02*
X0207453Y0159068D01*
X0205854Y0160666D02*
X0190470Y0160666D01*
X0190470Y0162265D02*
X0204256Y0162265D01*
X0202657Y0163863D02*
X0190470Y0163863D01*
X0190470Y0165462D02*
X0201059Y0165462D01*
X0199460Y0167060D02*
X0190470Y0167060D01*
X0190470Y0168659D02*
X0197862Y0168659D01*
X0196263Y0170257D02*
X0190470Y0170257D01*
X0190470Y0171856D02*
X0194665Y0171856D01*
X0193170Y0173454D02*
X0190470Y0173454D01*
X0190470Y0175053D02*
X0192802Y0175053D01*
X0192802Y0176651D02*
X0190470Y0176651D01*
X0190470Y0178250D02*
X0192802Y0178250D01*
X0192802Y0179848D02*
X0190164Y0179848D01*
X0188758Y0181447D02*
X0192802Y0181447D01*
X0192802Y0183045D02*
X0187160Y0183045D01*
X0185561Y0184644D02*
X0192802Y0184644D01*
X0192802Y0186242D02*
X0183963Y0186242D01*
X0182364Y0187841D02*
X0192802Y0187841D01*
X0192802Y0189439D02*
X0180766Y0189439D01*
X0179167Y0191038D02*
X0192802Y0191038D01*
X0192544Y0192636D02*
X0177569Y0192636D01*
X0175970Y0194235D02*
X0191547Y0194235D01*
X0191302Y0195833D02*
X0175640Y0195833D01*
X0182807Y0197432D02*
X0191656Y0197432D01*
X0216631Y0215015D02*
X0230701Y0215015D01*
X0230701Y0213417D02*
X0224554Y0213417D01*
X0226153Y0211818D02*
X0230701Y0211818D01*
X0230701Y0210220D02*
X0227751Y0210220D01*
X0228418Y0208621D02*
X0230701Y0208621D01*
X0230701Y0207023D02*
X0228418Y0207023D01*
X0228418Y0205424D02*
X0230701Y0205424D01*
X0230701Y0203826D02*
X0228418Y0203826D01*
X0228418Y0202227D02*
X0230701Y0202227D01*
X0230701Y0200629D02*
X0228418Y0200629D01*
X0228418Y0199030D02*
X0230701Y0199030D01*
X0230701Y0197432D02*
X0228418Y0197432D01*
X0228418Y0195833D02*
X0230701Y0195833D01*
X0230701Y0194235D02*
X0228418Y0194235D01*
X0228418Y0192636D02*
X0230701Y0192636D01*
X0230701Y0191038D02*
X0228418Y0191038D01*
X0228418Y0189439D02*
X0230701Y0189439D01*
X0230701Y0187841D02*
X0228418Y0187841D01*
X0228418Y0186242D02*
X0230701Y0186242D01*
X0230701Y0184644D02*
X0228418Y0184644D01*
X0228418Y0183045D02*
X0230701Y0183045D01*
X0230701Y0181447D02*
X0228418Y0181447D01*
X0228418Y0179848D02*
X0230701Y0179848D01*
X0230701Y0178250D02*
X0228418Y0178250D01*
X0228418Y0176651D02*
X0230701Y0176651D01*
X0230701Y0175053D02*
X0228418Y0175053D01*
X0228050Y0173454D02*
X0230701Y0173454D01*
X0230701Y0171856D02*
X0226555Y0171856D01*
X0224957Y0170257D02*
X0230701Y0170257D01*
X0230701Y0168659D02*
X0224875Y0168659D01*
X0225200Y0167060D02*
X0230701Y0167060D01*
X0230701Y0165462D02*
X0225091Y0165462D01*
X0224428Y0163863D02*
X0230701Y0163863D01*
X0230701Y0162265D02*
X0222901Y0162265D01*
X0223092Y0160666D02*
X0230701Y0160666D01*
X0230701Y0159068D02*
X0224691Y0159068D01*
X0226289Y0157469D02*
X0230701Y0157469D01*
X0230701Y0155870D02*
X0227888Y0155870D01*
X0228418Y0154272D02*
X0230701Y0154272D01*
X0230701Y0152673D02*
X0228418Y0152673D01*
X0228418Y0151075D02*
X0230701Y0151075D01*
X0230701Y0149476D02*
X0228418Y0149476D01*
X0228418Y0147878D02*
X0230701Y0147878D01*
X0230701Y0146279D02*
X0228418Y0146279D01*
X0228418Y0144681D02*
X0230701Y0144681D01*
X0230701Y0143082D02*
X0228418Y0143082D01*
X0228418Y0141484D02*
X0230701Y0141484D01*
X0230701Y0139885D02*
X0228418Y0139885D01*
X0228418Y0138287D02*
X0230701Y0138287D01*
X0230701Y0136688D02*
X0228418Y0136688D01*
X0228418Y0135090D02*
X0230701Y0135090D01*
X0230701Y0133491D02*
X0228418Y0133491D01*
X0228418Y0131893D02*
X0230701Y0131893D01*
X0230701Y0130294D02*
X0228418Y0130294D01*
X0228418Y0128696D02*
X0230701Y0128696D01*
X0230701Y0127097D02*
X0228418Y0127097D01*
X0228418Y0125499D02*
X0230701Y0125499D01*
X0230701Y0123900D02*
X0228418Y0123900D01*
X0228418Y0122302D02*
X0230701Y0122302D01*
X0230701Y0120703D02*
X0228418Y0120703D01*
X0228418Y0119105D02*
X0230701Y0119105D01*
X0230701Y0117506D02*
X0228418Y0117506D01*
X0228418Y0115908D02*
X0230701Y0115908D01*
X0230701Y0114309D02*
X0228418Y0114309D01*
X0228418Y0112711D02*
X0230701Y0112711D01*
X0230701Y0111112D02*
X0228418Y0111112D01*
X0228418Y0109514D02*
X0230701Y0109514D01*
X0230701Y0107915D02*
X0228418Y0107915D01*
X0228418Y0106317D02*
X0230701Y0106317D01*
X0230701Y0104718D02*
X0228418Y0104718D01*
X0228418Y0103120D02*
X0230701Y0103120D01*
X0230701Y0101521D02*
X0228418Y0101521D01*
X0228418Y0099923D02*
X0230701Y0099923D01*
X0230701Y0098324D02*
X0228418Y0098324D01*
X0228418Y0096726D02*
X0230701Y0096726D01*
X0230701Y0095127D02*
X0228418Y0095127D01*
X0228418Y0093529D02*
X0230701Y0093529D01*
X0230701Y0091930D02*
X0228418Y0091930D01*
X0228418Y0090332D02*
X0230701Y0090332D01*
X0230701Y0088733D02*
X0228418Y0088733D01*
X0228418Y0087134D02*
X0230701Y0087134D01*
X0230701Y0085536D02*
X0228418Y0085536D01*
X0228418Y0083937D02*
X0230701Y0083937D01*
X0230701Y0082339D02*
X0228418Y0082339D01*
X0228418Y0080740D02*
X0230701Y0080740D01*
X0230701Y0079142D02*
X0228418Y0079142D01*
X0228418Y0077543D02*
X0230701Y0077543D01*
X0230701Y0075945D02*
X0228418Y0075945D01*
X0228418Y0074346D02*
X0230701Y0074346D01*
X0230701Y0072748D02*
X0228418Y0072748D01*
X0228418Y0071149D02*
X0230701Y0071149D01*
X0230701Y0069551D02*
X0228418Y0069551D01*
X0228418Y0067952D02*
X0230701Y0067952D01*
X0230701Y0066354D02*
X0228418Y0066354D01*
X0228418Y0064755D02*
X0230701Y0064755D01*
X0230701Y0063157D02*
X0228418Y0063157D01*
X0228418Y0061558D02*
X0230701Y0061558D01*
X0230701Y0059960D02*
X0228418Y0059960D01*
X0227811Y0058361D02*
X0230701Y0058361D01*
X0230701Y0056763D02*
X0226212Y0056763D01*
X0227161Y0057712D02*
X0227161Y0057712D01*
X0224614Y0055164D02*
X0230701Y0055164D01*
X0230701Y0053566D02*
X0223015Y0053566D01*
X0221417Y0051967D02*
X0230701Y0051967D01*
X0230701Y0050369D02*
X0219818Y0050369D01*
X0218220Y0048770D02*
X0230701Y0048770D01*
X0230701Y0047172D02*
X0216621Y0047172D01*
X0215023Y0045573D02*
X0230701Y0045573D01*
X0230701Y0043975D02*
X0213424Y0043975D01*
X0211826Y0042376D02*
X0230701Y0042376D01*
X0230701Y0040778D02*
X0210227Y0040778D01*
X0208629Y0039179D02*
X0230701Y0039179D01*
X0230701Y0037581D02*
X0219450Y0037581D01*
X0223094Y0035982D02*
X0230701Y0035982D01*
X0230701Y0034384D02*
X0224913Y0034384D01*
X0226161Y0032785D02*
X0230701Y0032785D01*
X0230701Y0031187D02*
X0227084Y0031187D01*
X0227544Y0029588D02*
X0230701Y0029588D01*
X0230701Y0027990D02*
X0227899Y0027990D01*
X0227899Y0026391D02*
X0230701Y0026391D01*
X0230701Y0024793D02*
X0227753Y0024793D01*
X0227325Y0023194D02*
X0230701Y0023194D01*
X0214150Y0037581D02*
X0207030Y0037581D01*
X0205432Y0035982D02*
X0210506Y0035982D01*
X0208687Y0034384D02*
X0203833Y0034384D01*
X0202235Y0032785D02*
X0207439Y0032785D01*
X0206516Y0031187D02*
X0200636Y0031187D01*
X0199967Y0030518D02*
X0199967Y0030518D01*
X0198877Y0029588D02*
X0206056Y0029588D01*
X0205701Y0027990D02*
X0120897Y0027990D01*
X0120897Y0029588D02*
X0133335Y0029588D01*
X0135186Y0029588D02*
X0144638Y0029588D01*
X0142879Y0031187D02*
X0137702Y0031187D01*
X0138533Y0032785D02*
X0141281Y0032785D01*
X0119943Y0026391D02*
X0205701Y0026391D01*
X0205847Y0024793D02*
X0118345Y0024793D01*
X0116487Y0023194D02*
X0206275Y0023194D01*
X0197679Y0043975D02*
X0196961Y0043975D01*
X0195946Y0045573D02*
X0198223Y0045573D01*
X0198223Y0047172D02*
X0193730Y0047172D01*
X0195779Y0048770D02*
X0198223Y0048770D01*
X0198223Y0050369D02*
X0196592Y0050369D01*
X0196800Y0051886D02*
X0196800Y0052194D01*
X0196677Y0052971D01*
X0196434Y0053719D01*
X0196076Y0054421D01*
X0195614Y0055057D01*
X0195057Y0055614D01*
X0194421Y0056076D01*
X0193719Y0056434D01*
X0192971Y0056677D01*
X0192194Y0056800D01*
X0191886Y0056800D01*
X0191886Y0051886D01*
X0196800Y0051886D01*
X0196800Y0051967D02*
X0198223Y0051967D01*
X0198223Y0053566D02*
X0196484Y0053566D01*
X0195507Y0055164D02*
X0198223Y0055164D01*
X0198223Y0056763D02*
X0192428Y0056763D01*
X0191886Y0056763D02*
X0191714Y0056763D01*
X0191172Y0056763D02*
X0184452Y0056763D01*
X0186355Y0055164D02*
X0188093Y0055164D01*
X0191714Y0055164D02*
X0191886Y0055164D01*
X0191886Y0053566D02*
X0191714Y0053566D01*
X0191714Y0051967D02*
X0191886Y0051967D01*
X0198223Y0058361D02*
X0179023Y0058361D01*
X0177424Y0059960D02*
X0198223Y0059960D01*
X0198223Y0061558D02*
X0197157Y0061558D01*
X0197743Y0063157D02*
X0198223Y0063157D01*
X0198223Y0064755D02*
X0197743Y0064755D01*
X0197743Y0066354D02*
X0198223Y0066354D01*
X0198223Y0067952D02*
X0197743Y0067952D01*
X0197743Y0069551D02*
X0198223Y0069551D01*
X0198223Y0071149D02*
X0197026Y0071149D01*
X0196038Y0072485D02*
X0196449Y0072722D01*
X0196784Y0073057D01*
X0197021Y0073467D01*
X0197143Y0073925D01*
X0197143Y0076537D01*
X0192575Y0076537D01*
X0192575Y0072362D01*
X0195580Y0072362D01*
X0196038Y0072485D01*
X0196475Y0072748D02*
X0198223Y0072748D01*
X0198223Y0074346D02*
X0197143Y0074346D01*
X0197143Y0075945D02*
X0198223Y0075945D01*
X0198444Y0077543D02*
X0192575Y0077543D01*
X0192575Y0078087D02*
X0197143Y0078087D01*
X0197143Y0080698D01*
X0197021Y0081156D01*
X0196784Y0081567D01*
X0196449Y0081902D01*
X0196038Y0082139D01*
X0195580Y0082261D01*
X0192575Y0082261D01*
X0192575Y0078087D01*
X0192575Y0079142D02*
X0191025Y0079142D01*
X0191025Y0080740D02*
X0192575Y0080740D01*
X0188663Y0082339D02*
X0202927Y0082339D01*
X0204525Y0083937D02*
X0188663Y0083937D01*
X0189027Y0085536D02*
X0206124Y0085536D01*
X0207722Y0087134D02*
X0190625Y0087134D01*
X0192224Y0088733D02*
X0209306Y0088733D01*
X0208629Y0090332D02*
X0193823Y0090332D01*
X0195421Y0091930D02*
X0208463Y0091930D01*
X0208737Y0093529D02*
X0197020Y0093529D01*
X0198618Y0095127D02*
X0209566Y0095127D01*
X0211694Y0096726D02*
X0200217Y0096726D01*
X0201815Y0098324D02*
X0209715Y0098324D01*
X0208798Y0099923D02*
X0203414Y0099923D01*
X0205012Y0101521D02*
X0208463Y0101521D01*
X0208567Y0103120D02*
X0206611Y0103120D01*
X0208209Y0104718D02*
X0209229Y0104718D01*
X0209808Y0106317D02*
X0210756Y0106317D01*
X0198408Y0103120D02*
X0165170Y0103120D01*
X0165170Y0104718D02*
X0180169Y0104718D01*
X0179011Y0106317D02*
X0165170Y0106317D01*
X0165170Y0107915D02*
X0178652Y0107915D01*
X0177495Y0109514D02*
X0165170Y0109514D01*
X0165170Y0111112D02*
X0175896Y0111112D01*
X0174298Y0112711D02*
X0165170Y0112711D01*
X0165170Y0114309D02*
X0170542Y0114309D01*
X0168021Y0115908D02*
X0165579Y0115908D01*
X0166510Y0117506D02*
X0167090Y0117506D01*
X0166800Y0119105D02*
X0166800Y0119105D01*
X0166800Y0120703D02*
X0166800Y0120703D01*
X0166800Y0122302D02*
X0166800Y0122302D01*
X0166800Y0123900D02*
X0166800Y0123900D01*
X0166757Y0125499D02*
X0166843Y0125499D01*
X0165680Y0101521D02*
X0196810Y0101521D01*
X0195211Y0099923D02*
X0167279Y0099923D01*
X0174947Y0098324D02*
X0178653Y0098324D01*
X0177351Y0096726D02*
X0176249Y0096726D01*
X0176800Y0095127D02*
X0176800Y0095127D01*
X0176800Y0093529D02*
X0176800Y0093529D01*
X0176800Y0091930D02*
X0176800Y0091930D01*
X0176800Y0090332D02*
X0176800Y0090332D01*
X0176800Y0088733D02*
X0176800Y0088733D01*
X0176356Y0087134D02*
X0177244Y0087134D01*
X0178393Y0085536D02*
X0175207Y0085536D01*
X0169688Y0083937D02*
X0182863Y0083937D01*
X0182863Y0082339D02*
X0169688Y0082339D01*
X0169688Y0080740D02*
X0182863Y0080740D01*
X0182863Y0079142D02*
X0169688Y0079142D01*
X0169688Y0077543D02*
X0182863Y0077543D01*
X0182863Y0075945D02*
X0169688Y0075945D01*
X0169688Y0074346D02*
X0182863Y0074346D01*
X0182863Y0072748D02*
X0169688Y0072748D01*
X0169688Y0071149D02*
X0182941Y0071149D01*
X0184027Y0069551D02*
X0169688Y0069551D01*
X0169688Y0067952D02*
X0185625Y0067952D01*
X0185857Y0066354D02*
X0171030Y0066354D01*
X0172629Y0064755D02*
X0185857Y0064755D01*
X0185857Y0063157D02*
X0174227Y0063157D01*
X0175826Y0061558D02*
X0186443Y0061558D01*
X0191025Y0072748D02*
X0192575Y0072748D01*
X0192575Y0074346D02*
X0191025Y0074346D01*
X0191025Y0075945D02*
X0192575Y0075945D01*
X0197143Y0079142D02*
X0199730Y0079142D01*
X0201328Y0080740D02*
X0197132Y0080740D01*
X0187219Y0091930D02*
X0186800Y0091930D01*
X0186800Y0093529D02*
X0188817Y0093529D01*
X0190416Y0095127D02*
X0186800Y0095127D01*
X0186249Y0096726D02*
X0192014Y0096726D01*
X0193613Y0098324D02*
X0184947Y0098324D01*
X0136811Y0113153D02*
X0136185Y0111644D01*
X0136185Y0110470D01*
X0124574Y0098858D01*
X0124244Y0098063D01*
X0124106Y0098163D01*
X0123489Y0098478D01*
X0122830Y0098692D01*
X0122146Y0098800D01*
X0121800Y0098800D01*
X0121800Y0091800D01*
X0121800Y0091800D01*
X0121800Y0091800D01*
X0117400Y0091800D01*
X0117400Y0094746D01*
X0117508Y0095430D01*
X0117722Y0096089D01*
X0118037Y0096706D01*
X0118444Y0097266D01*
X0118934Y0097756D01*
X0119494Y0098163D01*
X0120111Y0098478D01*
X0120770Y0098692D01*
X0121454Y0098800D01*
X0121800Y0098800D01*
X0121800Y0091800D01*
X0117400Y0091800D01*
X0117400Y0090167D01*
X0116800Y0090767D01*
X0116800Y0095395D01*
X0116039Y0097232D01*
X0115476Y0097795D01*
X0115476Y0101435D01*
X0128992Y0114951D01*
X0130805Y0114200D01*
X0132795Y0114200D01*
X0134632Y0114961D01*
X0134817Y0115146D01*
X0135329Y0114635D01*
X0136811Y0113153D01*
X0136627Y0112711D02*
X0126751Y0112711D01*
X0128349Y0114309D02*
X0130542Y0114309D01*
X0133058Y0114309D02*
X0135654Y0114309D01*
X0136185Y0111112D02*
X0125152Y0111112D01*
X0123554Y0109514D02*
X0135229Y0109514D01*
X0133631Y0107915D02*
X0121955Y0107915D01*
X0120357Y0106317D02*
X0132032Y0106317D01*
X0130434Y0104718D02*
X0118758Y0104718D01*
X0117160Y0103120D02*
X0128835Y0103120D01*
X0127237Y0101521D02*
X0115561Y0101521D01*
X0115476Y0099923D02*
X0125638Y0099923D01*
X0124353Y0098324D02*
X0123790Y0098324D01*
X0121800Y0098324D02*
X0121800Y0098324D01*
X0121800Y0096726D02*
X0121800Y0096726D01*
X0121800Y0095127D02*
X0121800Y0095127D01*
X0121800Y0093529D02*
X0121800Y0093529D01*
X0121800Y0091930D02*
X0121800Y0091930D01*
X0117400Y0091930D02*
X0116800Y0091930D01*
X0116800Y0093529D02*
X0117400Y0093529D01*
X0117460Y0095127D02*
X0116800Y0095127D01*
X0116249Y0096726D02*
X0118051Y0096726D01*
X0119810Y0098324D02*
X0115476Y0098324D01*
X0117236Y0090332D02*
X0117400Y0090332D01*
X0107725Y0117506D02*
X0106510Y0117506D01*
X0106800Y0119105D02*
X0107400Y0119105D01*
X0107400Y0120703D02*
X0106800Y0120703D01*
X0135354Y0130294D02*
X0136132Y0130294D01*
X0137492Y0131893D02*
X0137731Y0131893D01*
X0140775Y0151075D02*
X0147274Y0151075D01*
X0148478Y0152673D02*
X0140775Y0152673D01*
X0150161Y0151075D02*
X0171959Y0151075D01*
X0164986Y0159068D02*
X0160060Y0159068D01*
X0160096Y0160666D02*
X0163388Y0160666D01*
X0161789Y0162265D02*
X0160096Y0162265D01*
X0160096Y0163863D02*
X0160191Y0163863D01*
X0152325Y0165462D02*
X0152088Y0165462D01*
X0152451Y0171856D02*
X0157563Y0171856D01*
X0157563Y0173454D02*
X0152749Y0173454D01*
X0152749Y0175053D02*
X0157563Y0175053D01*
X0157563Y0176651D02*
X0152749Y0176651D01*
X0152749Y0178250D02*
X0157563Y0178250D01*
X0157563Y0179848D02*
X0152741Y0179848D01*
X0151562Y0181447D02*
X0157563Y0181447D01*
X0157563Y0183045D02*
X0152448Y0183045D01*
X0152749Y0184644D02*
X0157563Y0184644D01*
X0157563Y0186242D02*
X0152749Y0186242D01*
X0152749Y0187841D02*
X0157563Y0187841D01*
X0157563Y0189439D02*
X0152749Y0189439D01*
X0152744Y0191038D02*
X0157563Y0191038D01*
X0154933Y0192636D02*
X0152749Y0192636D01*
X0152749Y0194235D02*
X0153069Y0194235D01*
X0141152Y0183045D02*
X0135814Y0183045D01*
X0134801Y0181447D02*
X0142038Y0181447D01*
X0140859Y0179848D02*
X0127602Y0179848D01*
X0123928Y0185645D02*
X0122543Y0185645D01*
X0120926Y0184975D01*
X0119688Y0183737D01*
X0119672Y0183700D01*
X0119672Y0190624D01*
X0119307Y0191506D01*
X0118632Y0192181D01*
X0117750Y0192546D01*
X0109708Y0192546D01*
X0109300Y0192377D01*
X0108892Y0192546D01*
X0103568Y0192546D01*
X0102377Y0193737D01*
X0102753Y0194113D01*
X0103422Y0195730D01*
X0103422Y0197480D01*
X0102753Y0199098D01*
X0101515Y0200335D01*
X0099898Y0201005D01*
X0098147Y0201005D01*
X0097695Y0200818D01*
X0097378Y0201585D01*
X0096738Y0202224D01*
X0096784Y0202270D01*
X0097021Y0202680D01*
X0097143Y0203138D01*
X0097143Y0206807D01*
X0092600Y0206807D01*
X0092600Y0208407D01*
X0097143Y0208407D01*
X0097143Y0212062D01*
X0097214Y0211891D01*
X0097889Y0211216D01*
X0098771Y0210851D01*
X0106025Y0210851D01*
X0106800Y0211172D01*
X0107575Y0210851D01*
X0108772Y0210851D01*
X0108772Y0201735D01*
X0107942Y0200905D01*
X0107272Y0199287D01*
X0107272Y0197537D01*
X0107942Y0195920D01*
X0109180Y0194682D01*
X0110797Y0194012D01*
X0112547Y0194012D01*
X0114164Y0194682D01*
X0115402Y0195920D01*
X0116072Y0197537D01*
X0116072Y0199287D01*
X0115402Y0200905D01*
X0114572Y0201735D01*
X0114572Y0210474D01*
X0114635Y0210323D01*
X0115404Y0209554D01*
X0115404Y0208380D01*
X0116074Y0206762D01*
X0117312Y0205525D01*
X0118929Y0204855D01*
X0120679Y0204855D01*
X0122296Y0205525D01*
X0123534Y0206762D01*
X0124204Y0208380D01*
X0124204Y0210130D01*
X0123905Y0210851D01*
X0126025Y0210851D01*
X0126590Y0211085D01*
X0126216Y0210711D01*
X0125851Y0209829D01*
X0125851Y0202575D01*
X0126216Y0201692D01*
X0126891Y0201017D01*
X0127773Y0200652D01*
X0128650Y0200652D01*
X0128650Y0197217D01*
X0127820Y0196387D01*
X0127150Y0194770D01*
X0127150Y0193019D01*
X0127346Y0192546D01*
X0125850Y0192546D01*
X0124968Y0192181D01*
X0124293Y0191506D01*
X0123928Y0190624D01*
X0123928Y0185645D01*
X0123928Y0186242D02*
X0119672Y0186242D01*
X0119672Y0184644D02*
X0120594Y0184644D01*
X0119018Y0181447D02*
X0118660Y0181447D01*
X0119016Y0179848D02*
X0100234Y0179848D01*
X0094411Y0176651D02*
X0092885Y0176651D01*
X0094050Y0175053D02*
X0094187Y0175053D01*
X0094187Y0170257D02*
X0093877Y0170257D01*
X0094626Y0168659D02*
X0092468Y0168659D01*
X0078173Y0167060D02*
X0076624Y0167060D01*
X0076624Y0165462D02*
X0078173Y0165462D01*
X0078173Y0163863D02*
X0076624Y0163863D01*
X0076624Y0160666D02*
X0078173Y0160666D01*
X0078173Y0159068D02*
X0076624Y0159068D01*
X0076624Y0157469D02*
X0078173Y0157469D01*
X0072449Y0163863D02*
X0071751Y0163863D01*
X0071751Y0165462D02*
X0072449Y0165462D01*
X0073679Y0167060D02*
X0071034Y0167060D01*
X0072468Y0168659D02*
X0076250Y0168659D01*
X0074841Y0170257D02*
X0073877Y0170257D01*
X0074050Y0175053D02*
X0074668Y0175053D01*
X0075833Y0176651D02*
X0072885Y0176651D01*
X0079359Y0181447D02*
X0062666Y0181447D01*
X0064265Y0183045D02*
X0077761Y0183045D01*
X0076162Y0184644D02*
X0075087Y0184644D01*
X0079569Y0189439D02*
X0083386Y0189439D01*
X0083386Y0190383D02*
X0083386Y0187600D01*
X0087929Y0187600D01*
X0087929Y0186000D01*
X0083386Y0186000D01*
X0083386Y0185622D01*
X0078430Y0190578D01*
X0078430Y0191761D01*
X0077989Y0192827D01*
X0075800Y0195015D01*
X0075800Y0199677D01*
X0075435Y0200559D01*
X0074760Y0201234D01*
X0074482Y0201349D01*
X0074760Y0201464D01*
X0075435Y0202139D01*
X0075800Y0203021D01*
X0075800Y0208775D01*
X0075435Y0209658D01*
X0074760Y0210333D01*
X0073878Y0210698D01*
X0073009Y0210698D01*
X0073009Y0210857D01*
X0075703Y0210857D01*
X0076585Y0211222D01*
X0077224Y0211862D01*
X0077270Y0211816D01*
X0077680Y0211579D01*
X0078138Y0211457D01*
X0081807Y0211457D01*
X0081807Y0216000D01*
X0083407Y0216000D01*
X0083407Y0211457D01*
X0086457Y0211457D01*
X0086457Y0208407D01*
X0091000Y0208407D01*
X0091000Y0206807D01*
X0086457Y0206807D01*
X0086457Y0203138D01*
X0086579Y0202680D01*
X0086816Y0202270D01*
X0086862Y0202224D01*
X0086222Y0201585D01*
X0085857Y0200703D01*
X0085857Y0191946D01*
X0084949Y0191946D01*
X0084491Y0191824D01*
X0084081Y0191587D01*
X0083745Y0191252D01*
X0083508Y0190841D01*
X0083386Y0190383D01*
X0083622Y0191038D02*
X0078430Y0191038D01*
X0078068Y0192636D02*
X0085857Y0192636D01*
X0085857Y0194235D02*
X0076581Y0194235D01*
X0075800Y0195833D02*
X0085857Y0195833D01*
X0085857Y0197432D02*
X0075800Y0197432D01*
X0075800Y0199030D02*
X0085857Y0199030D01*
X0085857Y0200629D02*
X0075365Y0200629D01*
X0075471Y0202227D02*
X0086859Y0202227D01*
X0086457Y0203826D02*
X0075800Y0203826D01*
X0075800Y0205424D02*
X0086457Y0205424D01*
X0086457Y0208621D02*
X0075800Y0208621D01*
X0075800Y0207023D02*
X0091000Y0207023D01*
X0091000Y0208407D02*
X0091000Y0213639D01*
X0090427Y0213639D01*
X0090427Y0216025D01*
X0091976Y0216025D01*
X0091976Y0211451D01*
X0092600Y0211451D01*
X0092600Y0208407D01*
X0091000Y0208407D01*
X0091000Y0208621D02*
X0092600Y0208621D01*
X0092600Y0207023D02*
X0108772Y0207023D01*
X0108772Y0208621D02*
X0097143Y0208621D01*
X0097143Y0210220D02*
X0108772Y0210220D01*
X0108772Y0205424D02*
X0097143Y0205424D01*
X0097143Y0203826D02*
X0108772Y0203826D01*
X0108772Y0202227D02*
X0096741Y0202227D01*
X0100806Y0200629D02*
X0107828Y0200629D01*
X0107272Y0199030D02*
X0102780Y0199030D01*
X0103422Y0197432D02*
X0107316Y0197432D01*
X0108028Y0195833D02*
X0103422Y0195833D01*
X0102803Y0194235D02*
X0110260Y0194235D01*
X0113085Y0194235D02*
X0127150Y0194235D01*
X0127309Y0192636D02*
X0103478Y0192636D01*
X0115316Y0195833D02*
X0127591Y0195833D01*
X0128650Y0197432D02*
X0116028Y0197432D01*
X0116072Y0199030D02*
X0128650Y0199030D01*
X0128650Y0200629D02*
X0115516Y0200629D01*
X0114572Y0202227D02*
X0125995Y0202227D01*
X0125851Y0203826D02*
X0114572Y0203826D01*
X0114572Y0205424D02*
X0117554Y0205424D01*
X0115966Y0207023D02*
X0114572Y0207023D01*
X0114572Y0208621D02*
X0115404Y0208621D01*
X0114738Y0210220D02*
X0114572Y0210220D01*
X0122054Y0205424D02*
X0125851Y0205424D01*
X0125851Y0207023D02*
X0123642Y0207023D01*
X0124204Y0208621D02*
X0125851Y0208621D01*
X0126013Y0210220D02*
X0124167Y0210220D01*
X0124099Y0191038D02*
X0119501Y0191038D01*
X0119672Y0189439D02*
X0123928Y0189439D01*
X0123928Y0187841D02*
X0119672Y0187841D01*
X0097287Y0211818D02*
X0097143Y0211818D01*
X0096849Y0212832D02*
X0096784Y0212945D01*
X0096449Y0213280D01*
X0096151Y0213451D01*
X0096151Y0216025D01*
X0091976Y0216025D01*
X0091976Y0217575D01*
X0090427Y0217575D01*
X0090427Y0222149D01*
X0087815Y0222149D01*
X0087435Y0222047D01*
X0087076Y0222143D01*
X0083407Y0222143D01*
X0083407Y0217600D01*
X0081807Y0217600D01*
X0081807Y0222143D01*
X0079870Y0222143D01*
X0081556Y0223829D01*
X0082730Y0223829D01*
X0084348Y0224499D01*
X0085178Y0225329D01*
X0100044Y0225329D01*
X0100044Y0223740D01*
X0100454Y0222749D01*
X0098771Y0222749D01*
X0097889Y0222384D01*
X0097214Y0221709D01*
X0096849Y0220827D01*
X0096849Y0212832D01*
X0096849Y0213417D02*
X0096211Y0213417D01*
X0096151Y0215015D02*
X0096849Y0215015D01*
X0096849Y0216614D02*
X0091976Y0216614D01*
X0091976Y0217575D02*
X0096151Y0217575D01*
X0096151Y0220586D01*
X0096029Y0221044D01*
X0095792Y0221454D01*
X0095456Y0221790D01*
X0095046Y0222027D01*
X0094588Y0222149D01*
X0091976Y0222149D01*
X0091976Y0217575D01*
X0091976Y0218212D02*
X0090427Y0218212D01*
X0090427Y0217575D02*
X0090427Y0216025D01*
X0086252Y0216025D01*
X0086252Y0216000D01*
X0083407Y0216000D01*
X0083407Y0217600D01*
X0086252Y0217600D01*
X0086252Y0217575D01*
X0090427Y0217575D01*
X0090427Y0216614D02*
X0083407Y0216614D01*
X0083407Y0218212D02*
X0081807Y0218212D01*
X0081807Y0219811D02*
X0083407Y0219811D01*
X0083407Y0221409D02*
X0081807Y0221409D01*
X0080735Y0223008D02*
X0100347Y0223008D01*
X0100044Y0224606D02*
X0084455Y0224606D01*
X0090427Y0221409D02*
X0091976Y0221409D01*
X0091976Y0219811D02*
X0090427Y0219811D01*
X0090427Y0215015D02*
X0091976Y0215015D01*
X0091976Y0213417D02*
X0091000Y0213417D01*
X0091000Y0211818D02*
X0091976Y0211818D01*
X0092600Y0210220D02*
X0091000Y0210220D01*
X0086457Y0210220D02*
X0074873Y0210220D01*
X0077181Y0211818D02*
X0077268Y0211818D01*
X0081807Y0211818D02*
X0083407Y0211818D01*
X0083407Y0213417D02*
X0081807Y0213417D01*
X0081807Y0215015D02*
X0083407Y0215015D01*
X0096151Y0218212D02*
X0096849Y0218212D01*
X0096849Y0219811D02*
X0096151Y0219811D01*
X0095818Y0221409D02*
X0097090Y0221409D01*
X0070613Y0192000D02*
X0064877Y0192000D01*
X0064877Y0191901D01*
X0068601Y0191901D01*
X0068601Y0188101D01*
X0069401Y0188101D01*
X0069401Y0191901D01*
X0070712Y0191901D01*
X0070613Y0192000D01*
X0069401Y0191038D02*
X0068601Y0191038D01*
X0068601Y0189439D02*
X0069401Y0189439D01*
X0068601Y0187841D02*
X0064877Y0187841D01*
X0068601Y0186242D02*
X0069401Y0186242D01*
X0069401Y0184644D02*
X0068601Y0184644D01*
X0065833Y0176651D02*
X0057870Y0176651D01*
X0056272Y0175053D02*
X0064668Y0175053D01*
X0064187Y0173454D02*
X0054673Y0173454D01*
X0053075Y0171856D02*
X0064187Y0171856D01*
X0064841Y0170257D02*
X0051476Y0170257D01*
X0049878Y0168659D02*
X0066250Y0168659D01*
X0052566Y0167060D02*
X0051034Y0167060D01*
X0051751Y0165462D02*
X0051849Y0165462D01*
X0051849Y0163863D02*
X0051751Y0163863D01*
X0051751Y0162265D02*
X0051849Y0162265D01*
X0051849Y0160666D02*
X0051751Y0160666D01*
X0051751Y0159068D02*
X0051849Y0159068D01*
X0051975Y0157469D02*
X0051625Y0157469D01*
X0049876Y0155870D02*
X0053724Y0155870D01*
X0053985Y0152673D02*
X0058481Y0152673D01*
X0058639Y0151075D02*
X0055824Y0151075D01*
X0056438Y0149476D02*
X0059513Y0149476D01*
X0059433Y0147878D02*
X0056438Y0147878D01*
X0056770Y0146279D02*
X0058605Y0146279D01*
X0058481Y0144681D02*
X0058369Y0144681D01*
X0050166Y0144681D02*
X0036452Y0144681D01*
X0034957Y0146279D02*
X0048285Y0146279D01*
X0047638Y0147878D02*
X0035515Y0147878D01*
X0036682Y0149476D02*
X0047638Y0149476D01*
X0048252Y0151075D02*
X0037200Y0151075D01*
X0037200Y0152673D02*
X0050091Y0152673D01*
X0042527Y0155870D02*
X0035366Y0155870D01*
X0036621Y0154272D02*
X0058922Y0154272D01*
X0043717Y0168659D02*
X0026600Y0168659D01*
X0026600Y0170257D02*
X0043792Y0170257D01*
X0044873Y0171856D02*
X0026600Y0171856D01*
X0026600Y0173454D02*
X0046471Y0173454D01*
X0041369Y0167060D02*
X0026600Y0167060D01*
X0026600Y0165462D02*
X0040652Y0165462D01*
X0040652Y0163863D02*
X0026600Y0163863D01*
X0026600Y0162265D02*
X0040652Y0162265D01*
X0040652Y0160666D02*
X0026600Y0160666D01*
X0026600Y0159068D02*
X0040652Y0159068D01*
X0040778Y0157469D02*
X0026600Y0157469D01*
X0026600Y0155870D02*
X0028234Y0155870D01*
X0026979Y0154272D02*
X0026600Y0154272D01*
X0081168Y0187841D02*
X0083386Y0187841D01*
X0082766Y0186242D02*
X0087929Y0186242D01*
X0221356Y0216614D02*
X0230701Y0216614D01*
X0230701Y0218212D02*
X0223909Y0218212D01*
X0225508Y0219811D02*
X0230701Y0219811D01*
X0230701Y0221409D02*
X0226504Y0221409D01*
X0227275Y0223008D02*
X0230701Y0223008D01*
X0230701Y0224606D02*
X0227703Y0224606D01*
X0227899Y0226205D02*
X0230701Y0226205D01*
X0230701Y0227803D02*
X0227899Y0227803D01*
X0227594Y0229402D02*
X0230701Y0229402D01*
X0230701Y0231001D02*
X0227165Y0231001D01*
D37*
X0031800Y0211800D03*
X0031800Y0196800D03*
X0031800Y0181800D03*
M02*
