%
M48
M72
T01C0.02362
T02C0.02400
T03C0.03200
T04C0.03543
T05C0.03937
T06C0.04000
T07C0.12598
%
T01
X31800Y181800
X31800Y196800
X31800Y211800
T02
X81855Y228229
X104444Y224615
X119804Y209255
X111672Y198412
X99022Y196605
X97215Y183052
X123418Y181245
X125225Y175824
X131550Y193894
X155042Y181245
X155042Y172209
X151428Y155946
X148717Y146910
X141489Y157753
X127032Y154139
X140585Y110769
X136971Y99926
X165885Y107154
X183052Y108058
X190280Y108058
X220097Y124322
X183956Y155042
X178534Y155042
X174920Y147814
X171306Y194798
X156849Y196605
X146910Y221001
X154139Y224615
X183956Y207448
X195702Y195702
X78241Y83662
X85469Y73723
X96312Y55652
X112576Y59267
X122515Y69206
X130646Y41196
X134261Y33967
X137875Y37581
X201123Y41196
X62881Y145103
X62881Y152331
X52038Y148717
X46617Y137875
X41196Y137875
X61074Y137875
X43003Y98119
T03
X51800Y91800
X61800Y91800
X71800Y91800
X81800Y91800
X91800Y91800
X101800Y91800
X111800Y91800
X121800Y91800
X131800Y91800
X141800Y91800
X151800Y91800
X161800Y91800
X171800Y91800
X181800Y91800
X181800Y121800
X171800Y121800
X161800Y121800
X151800Y121800
X141800Y121800
X131800Y121800
X121800Y121800
X111800Y121800
X101800Y121800
X91800Y121800
X81800Y121800
X71800Y121800
X61800Y121800
X51800Y121800
X146800Y71300
X146800Y52300
T04
X171800Y51800
X171800Y41800
X181800Y41800
X181800Y51800
X191800Y51800
X191800Y41800
X111488Y31133
X101488Y31133
X91488Y31133
X81488Y31133
X71488Y31133
X61488Y31133
X69359Y172863
X79359Y172863
X89359Y172863
X99359Y172863
T05
X216800Y111800
X216800Y101800
X216800Y91800
X216800Y81800
X216800Y71800
X216800Y61800
T06
X216800Y131800
X216800Y141800
X216800Y151800
X216800Y166800
X216800Y176800
X216800Y186800
X216800Y196800
X216800Y206800
X31800Y151800
X31800Y141800
X31800Y131800
T07
X31800Y26800
X216800Y26800
X216800Y226800
X31800Y226800
M30
